0
SECTION
2
HEADER
9
$INSUNITS
70
4
9
$ACADVER
1
AC1014
9
$HANDSEED
5
FFFF
0
ENDSEC
0
SECTION
2
TABLES
0
TABLE
2
VPORT
5
8
100
AcDbSymbolTable
0
ENDTAB
0
TABLE
2
LTYPE
5
5
100
AcDbSymbolTable
70
2
0
LTYPE
5
14
100
AcDbSymbolTableRecord
100
AcDbLinetypeTableRecord
2
BYBLOCK
70
0
0
LTYPE
5
15
100
AcDbSymbolTableRecord
100
AcDbLinetypeTableRecord
2
BYLAYER
70
0
0
ENDTAB
0
TABLE
2
LAYER
5
2
100
AcDbSymbolTable
70
3
0
LAYER
5
50
100
AcDbSymbolTableRecord
100
AcDbLayerTableRecord
2
0
70
0
6
CONTINUOUS
0
LAYER
5
51
100
AcDbSymbolTableRecord
100
AcDbLayerTableRecord
2
CUTOUTS
70
0
62
1
6
CONTINUOUS
0
LAYER
5
52
100
AcDbSymbolTableRecord
100
AcDbLayerTableRecord
2
PERIMETER
70
0
62
5
6
CONTINUOUS
0
ENDTAB
0
TABLE
2
STYLE
5
3
100
AcDbSymbolTable
70
1
0
STYLE
5
11
100
AcDbSymbolTableRecord
100
AcDbTextStyleTableRecord
2
STANDARD
70
0
0
ENDTAB
0
TABLE
2
VIEW
5
6
100
AcDbSymbolTable
0
ENDTAB
0
TABLE
2
UCS
5
7
100
AcDbSymbolTable
0
ENDTAB
0
TABLE
2
APPID
5
9
100
AcDbSymbolTable
70
1
0
APPID
5
12
100
AcDbSymbolTableRecord
100
AcDbRegAppTableRecord
2
ACAD
70
0
0
ENDTAB
0
TABLE
2
DIMSTYLE
5
A
100
AcDbSymbolTable
0
ENDTAB
0
TABLE
2
BLOCK_RECORD
5
1
100
AcDbSymbolTable
70
2
0
BLOCK_RECORD
5
1F
100
AcDbSymbolTableRecord
100
AcDbBlockTableRecord
2
*MODEL_SPACE
0
BLOCK_RECORD
5
1B
100
AcDbSymbolTableRecord
100
AcDbBlockTableRecord
2
*PAPER_SPACE
0
ENDTAB
0
ENDSEC
0
SECTION
2
BLOCKS
0
BLOCK
5
20
100
AcDbEntity
100
AcDbBlockBegin
2
*MODEL_SPACE
0
ENDBLK
5
21
100
AcDbEntity
100
AcDbBlockEnd
0
BLOCK
5
1C
100
AcDbEntity
100
AcDbBlockBegin
2
*PAPER_SPACE
0
ENDBLK
5
1D
100
AcDbEntity
100
AcDbBlockEnd
0
ENDSEC
0
SECTION
2
ENTITIES
0
LWPOLYLINE
5
100
100
AcDbEntity
8
CUTOUTS
100
AcDbPolyline
90
4
70
1
43
0.0
10
-90
20
-85.075000000000003
42
0.99999999999999989
10
-90
20
-89.924999999999997
10
-20
20
-89.924999999999997
42
0.99999999999999989
10
-20
20
-85.075000000000003
0
LWPOLYLINE
5
101
100
AcDbEntity
8
PERIMETER
100
AcDbPolyline
90
28
70
1
43
0.0
10
0.074999999999998401
20
-62.925000000000004
10
-4.9250000000000016
20
-62.925000000000004
10
-4.9250000000000016
20
-42.074999999999996
10
0.074999999999998401
20
-42.074999999999996
10
0.074999999999998401
20
-20.925000000000004
10
-4.9250000000000016
20
-20.925000000000004
10
-4.9250000000000016
20
-4.9250000000000016
10
-24.925000000000001
20
-4.9250000000000016
10
-24.925000000000001
20
0.074999999999998401
10
-45.075000000000003
20
0.074999999999998401
10
-45.075000000000003
20
-4.9250000000000016
10
-64.924999999999997
20
-4.9250000000000016
10
-64.924999999999997
20
0.074999999999998401
10
-85.075000000000003
20
0.074999999999998401
10
-85.075000000000003
20
-4.9250000000000016
10
-105.075
20
-4.9250000000000016
10
-105.075
20
-21.075000000000003
10
-100.075
20
-21.075000000000003
10
-100.075
20
-41.925000000000011
10
-105.075
20
-41.925000000000011
10
-105.075
20
-63.07500000000001
10
-100.075
20
-63.07500000000001
10
-100.075
20
-83.924999999999997
10
-105.075
20
-83.924999999999997
10
-105.075
20
-105.075
10
-4.9249999999999972
20
-105.075
10
-4.9250000000000016
20
-84.075000000000003
10
0.074999999999998401
20
-84.075000000000003
0
ENDSEC
0
SECTION
2
OBJECTS
0
DICTIONARY
5
C
100
AcDbDictionary
3
ACAD_GROUP
350
D
3
ACAD_MLINESTYLE
350
17
0
DICTIONARY
5
D
100
AcDbDictionary
0
DICTIONARY
5
1A
330
C
100
AcDbDictionary
0
DICTIONARY
5
17
100
AcDbDictionary
0
ENDSEC
0
EOF
