  0
SECTION
  2
HEADER
  9
$ACADVER
  1
AC1009
  9
$EXTMIN
 10
0.0
 20
0.0
 30
0.0
  9
$EXTMAX
 10
1000.0
 20
1000.0
 30
0.0
  9
$FILLMODE
 70
 0
  9
$SPLFRAME
 70
 1
  0
ENDSEC
  0
SECTION
  2
TABLES
  0
TABLE
  2
LAYER
 70
1
  0
LAYER
  2
0
 70
     0
 62
     7
  6
CONTINUOUS
  0
ENDTAB
  0
ENDSEC
  0
SECTION
  2
ENTITIES
  0
POLYLINE
  8
0
 62
     0
 66
     1
 10
0
 20
0
 30
0.0
 70
     1
 40
25.4
 41
25.4
  0
VERTEX
  8
0
 10
63.1765
 20
0.19005
 30
0.0
 40
0.352778
 41
0.352778
  0
VERTEX
  8
0
 10
63.1765
 20
5.19006
 30
0.0
 40
0.352778
 41
0.352778
  0
VERTEX
  8
0
 10
42.3264
 20
5.19006
 30
0.0
 40
0.352778
 41
0.352778
  0
VERTEX
  8
0
 10
42.3264
 20
0.19005
 30
0.0
 40
0.352778
 41
0.352778
  0
VERTEX
  8
0
 10
21.1764
 20
0.19005
 30
0.0
 40
0.352778
 41
0.352778
  0
VERTEX
  8
0
 10
21.1764
 20
5.19006
 30
0.0
 40
0.352778
 41
0.352778
  0
VERTEX
  8
0
 10
5.17638
 20
5.19006
 30
0.0
 40
0.352778
 41
0.352778
  0
VERTEX
  8
0
 10
5.17638
 20
20.19
 30
0.0
 40
0.352778
 41
0.352778
  0
VERTEX
  8
0
 10
0.176378
 20
20.19
 30
0.0
 40
0.352778
 41
0.352778
  0
VERTEX
  8
0
 10
0.176378
 20
35.34
 30
0.0
 40
0.352778
 41
0.352778
  0
VERTEX
  8
0
 10
5.17638
 20
35.34
 30
0.0
 40
0.352778
 41
0.352778
  0
VERTEX
  8
0
 10
5.17638
 20
50.3401
 30
0.0
 40
0.352778
 41
0.352778
  0
VERTEX
  8
0
 10
21.1764
 20
50.3401
 30
0.0
 40
0.352778
 41
0.352778
  0
VERTEX
  8
0
 10
21.1764
 20
55.3401
 30
0.0
 40
0.352778
 41
0.352778
  0
VERTEX
  8
0
 10
42.3264
 20
55.3401
 30
0.0
 40
0.352778
 41
0.352778
  0
VERTEX
  8
0
 10
42.3264
 20
50.3401
 30
0.0
 40
0.352778
 41
0.352778
  0
VERTEX
  8
0
 10
63.1765
 20
50.3401
 30
0.0
 40
0.352778
 41
0.352778
  0
VERTEX
  8
0
 10
63.1765
 20
55.3401
 30
0.0
 40
0.352778
 41
0.352778
  0
VERTEX
  8
0
 10
84.3265
 20
55.3401
 30
0.0
 40
0.352778
 41
0.352778
  0
VERTEX
  8
0
 10
84.3265
 20
50.3401
 30
0.0
 40
0.352778
 41
0.352778
  0
VERTEX
  8
0
 10
88.2515
 20
50.3401
 30
0.0
 40
0.352778
 41
0.352778
  0
VERTEX
  8
0
 10
88.2587
 20
50.3401
 30
0.0
 40
0.352778
 41
0.352778
  0
VERTEX
  8
0
 10
88.2807
 20
50.3343
 30
0.0
 40
0.352778
 41
0.352778
  0
VERTEX
  8
0
 10
88.3046
 20
50.3182
 30
0.0
 40
0.352778
 41
0.352778
  0
VERTEX
  8
0
 10
88.3206
 20
50.2943
 30
0.0
 40
0.352778
 41
0.352778
  0
VERTEX
  8
0
 10
88.3265
 20
50.2724
 30
0.0
 40
0.352778
 41
0.352778
  0
VERTEX
  8
0
 10
88.3265
 20
50.2651
 30
0.0
 40
0.352778
 41
0.352778
  0
VERTEX
  8
0
 10
88.3265
 20
50.2578
 30
0.0
 40
0.352778
 41
0.352778
  0
VERTEX
  8
0
 10
88.3206
 20
50.236
 30
0.0
 40
0.352778
 41
0.352778
  0
VERTEX
  8
0
 10
88.3046
 20
50.2121
 30
0.0
 40
0.352778
 41
0.352778
  0
VERTEX
  8
0
 10
88.2807
 20
50.196
 30
0.0
 40
0.352778
 41
0.352778
  0
VERTEX
  8
0
 10
88.2587
 20
50.1901
 30
0.0
 40
0.352778
 41
0.352778
  0
VERTEX
  8
0
 10
88.2515
 20
50.1901
 30
0.0
 40
0.352778
 41
0.352778
  0
VERTEX
  8
0
 10
88.1767
 20
50.1901
 30
0.0
 40
0.352778
 41
0.352778
  0
VERTEX
  8
0
 10
87.9524
 20
50.175
 30
0.0
 40
0.352778
 41
0.352778
  0
VERTEX
  8
0
 10
87.6619
 20
50.1307
 30
0.0
 40
0.352778
 41
0.352778
  0
VERTEX
  8
0
 10
87.3817
 20
50.0586
 30
0.0
 40
0.352778
 41
0.352778
  0
VERTEX
  8
0
 10
87.1129
 20
49.9603
 30
0.0
 40
0.352778
 41
0.352778
  0
VERTEX
  8
0
 10
86.8572
 20
49.8371
 30
0.0
 40
0.352778
 41
0.352778
  0
VERTEX
  8
0
 10
86.6161
 20
49.6906
 30
0.0
 40
0.352778
 41
0.352778
  0
VERTEX
  8
0
 10
86.3908
 20
49.5222
 30
0.0
 40
0.352778
 41
0.352778
  0
VERTEX
  8
0
 10
86.1832
 20
49.3333
 30
0.0
 40
0.352778
 41
0.352778
  0
VERTEX
  8
0
 10
85.9944
 20
49.1257
 30
0.0
 40
0.352778
 41
0.352778
  0
VERTEX
  8
0
 10
85.826
 20
48.9006
 30
0.0
 40
0.352778
 41
0.352778
  0
VERTEX
  8
0
 10
85.6796
 20
48.6593
 30
0.0
 40
0.352778
 41
0.352778
  0
VERTEX
  8
0
 10
85.5562
 20
48.4036
 30
0.0
 40
0.352778
 41
0.352778
  0
VERTEX
  8
0
 10
85.4579
 20
48.1349
 30
0.0
 40
0.352778
 41
0.352778
  0
VERTEX
  8
0
 10
85.386
 20
47.8546
 30
0.0
 40
0.352778
 41
0.352778
  0
VERTEX
  8
0
 10
85.3415
 20
47.5642
 30
0.0
 40
0.352778
 41
0.352778
  0
VERTEX
  8
0
 10
85.3265
 20
47.3399
 30
0.0
 40
0.352778
 41
0.352778
  0
VERTEX
  8
0
 10
85.3265
 20
47.2651
 30
0.0
 40
0.352778
 41
0.352778
  0
VERTEX
  8
0
 10
85.3265
 20
43.2651
 30
0.0
 40
0.352778
 41
0.352778
  0
VERTEX
  8
0
 10
85.3265
 20
43.1903
 30
0.0
 40
0.352778
 41
0.352778
  0
VERTEX
  8
0
 10
85.3415
 20
42.966
 30
0.0
 40
0.352778
 41
0.352778
  0
VERTEX
  8
0
 10
85.386
 20
42.6756
 30
0.0
 40
0.352778
 41
0.352778
  0
VERTEX
  8
0
 10
85.4579
 20
42.3953
 30
0.0
 40
0.352778
 41
0.352778
  0
VERTEX
  8
0
 10
85.5562
 20
42.1265
 30
0.0
 40
0.352778
 41
0.352778
  0
VERTEX
  8
0
 10
85.6796
 20
41.871
 30
0.0
 40
0.352778
 41
0.352778
  0
VERTEX
  8
0
 10
85.826
 20
41.6297
 30
0.0
 40
0.352778
 41
0.352778
  0
VERTEX
  8
0
 10
85.9944
 20
41.4046
 30
0.0
 40
0.352778
 41
0.352778
  0
VERTEX
  8
0
 10
86.1832
 20
41.1968
 30
0.0
 40
0.352778
 41
0.352778
  0
VERTEX
  8
0
 10
86.3908
 20
41.0081
 30
0.0
 40
0.352778
 41
0.352778
  0
VERTEX
  8
0
 10
86.6161
 20
40.8397
 30
0.0
 40
0.352778
 41
0.352778
  0
VERTEX
  8
0
 10
86.8572
 20
40.6932
 30
0.0
 40
0.352778
 41
0.352778
  0
VERTEX
  8
0
 10
87.1129
 20
40.57
 30
0.0
 40
0.352778
 41
0.352778
  0
VERTEX
  8
0
 10
87.3817
 20
40.4717
 30
0.0
 40
0.352778
 41
0.352778
  0
VERTEX
  8
0
 10
87.6619
 20
40.3996
 30
0.0
 40
0.352778
 41
0.352778
  0
VERTEX
  8
0
 10
87.9524
 20
40.3553
 30
0.0
 40
0.352778
 41
0.352778
  0
VERTEX
  8
0
 10
88.1767
 20
40.3401
 30
0.0
 40
0.352778
 41
0.352778
  0
VERTEX
  8
0
 10
88.2515
 20
40.3401
 30
0.0
 40
0.352778
 41
0.352778
  0
VERTEX
  8
0
 10
93.2515
 20
40.3401
 30
0.0
 40
0.352778
 41
0.352778
  0
VERTEX
  8
0
 10
93.299
 20
40.3401
 30
0.0
 40
0.352778
 41
0.352778
  0
VERTEX
  8
0
 10
93.4418
 20
40.3496
 30
0.0
 40
0.352778
 41
0.352778
  0
VERTEX
  8
0
 10
93.6288
 20
40.3775
 30
0.0
 40
0.352778
 41
0.352778
  0
VERTEX
  8
0
 10
93.8114
 20
40.4233
 30
0.0
 40
0.352778
 41
0.352778
  0
VERTEX
  8
0
 10
93.9882
 20
40.4867
 30
0.0
 40
0.352778
 41
0.352778
  0
VERTEX
  8
0
 10
94.1581
 20
40.5669
 30
0.0
 40
0.352778
 41
0.352778
  0
VERTEX
  8
0
 10
94.3194
 20
40.6636
 30
0.0
 40
0.352778
 41
0.352778
  0
VERTEX
  8
0
 10
94.4715
 20
40.7761
 30
0.0
 40
0.352778
 41
0.352778
  0
VERTEX
  8
0
 10
94.5792
 20
40.8703
 30
0.0
 40
0.352778
 41
0.352778
  0
VERTEX
  8
0
 10
94.6128
 20
40.9039
 30
0.0
 40
0.352778
 41
0.352778
  0
VERTEX
  8
0
 10
94.6464
 20
40.9375
 30
0.0
 40
0.352778
 41
0.352778
  0
VERTEX
  8
0
 10
94.7406
 20
41.0451
 30
0.0
 40
0.352778
 41
0.352778
  0
VERTEX
  8
0
 10
94.8531
 20
41.1972
 30
0.0
 40
0.352778
 41
0.352778
  0
VERTEX
  8
0
 10
94.9497
 20
41.3586
 30
0.0
 40
0.352778
 41
0.352778
  0
VERTEX
  8
0
 10
95.03
 20
41.5285
 30
0.0
 40
0.352778
 41
0.352778
  0
VERTEX
  8
0
 10
95.0933
 20
41.7053
 30
0.0
 40
0.352778
 41
0.352778
  0
VERTEX
  8
0
 10
95.1392
 20
41.8878
 30
0.0
 40
0.352778
 41
0.352778
  0
VERTEX
  8
0
 10
95.1671
 20
42.0749
 30
0.0
 40
0.352778
 41
0.352778
  0
VERTEX
  8
0
 10
95.1765
 20
42.2175
 30
0.0
 40
0.352778
 41
0.352778
  0
VERTEX
  8
0
 10
95.1765
 20
42.2651
 30
0.0
 40
0.352778
 41
0.352778
  0
VERTEX
  8
0
 10
95.1765
 20
43.2651
 30
0.0
 40
0.352778
 41
0.352778
  0
VERTEX
  8
0
 10
95.1765
 20
43.3164
 30
0.0
 40
0.352778
 41
0.352778
  0
VERTEX
  8
0
 10
95.1867
 20
43.4703
 30
0.0
 40
0.352778
 41
0.352778
  0
VERTEX
  8
0
 10
95.2168
 20
43.6718
 30
0.0
 40
0.352778
 41
0.352778
  0
VERTEX
  8
0
 10
95.2662
 20
43.8686
 30
0.0
 40
0.352778
 41
0.352778
  0
VERTEX
  8
0
 10
95.3344
 20
44.0592
 30
0.0
 40
0.352778
 41
0.352778
  0
VERTEX
  8
0
 10
95.421
 20
44.2422
 30
0.0
 40
0.352778
 41
0.352778
  0
VERTEX
  8
0
 10
95.5251
 20
44.4164
 30
0.0
 40
0.352778
 41
0.352778
  0
VERTEX
  8
0
 10
95.6464
 20
44.5801
 30
0.0
 40
0.352778
 41
0.352778
  0
VERTEX
  8
0
 10
95.7481
 20
44.6961
 30
0.0
 40
0.352778
 41
0.352778
  0
VERTEX
  8
0
 10
95.7843
 20
44.7324
 30
0.0
 40
0.352778
 41
0.352778
  0
VERTEX
  8
0
 10
95.8206
 20
44.7686
 30
0.0
 40
0.352778
 41
0.352778
  0
VERTEX
  8
0
 10
95.9365
 20
44.8703
 30
0.0
 40
0.352778
 41
0.352778
  0
VERTEX
  8
0
 10
96.1003
 20
44.9915
 30
0.0
 40
0.352778
 41
0.352778
  0
VERTEX
  8
0
 10
96.2744
 20
45.0957
 30
0.0
 40
0.352778
 41
0.352778
  0
VERTEX
  8
0
 10
96.4575
 20
45.1822
 30
0.0
 40
0.352778
 41
0.352778
  0
VERTEX
  8
0
 10
96.6481
 20
45.2504
 30
0.0
 40
0.352778
 41
0.352778
  0
VERTEX
  8
0
 10
96.8449
 20
45.2999
 30
0.0
 40
0.352778
 41
0.352778
  0
VERTEX
  8
0
 10
97.0464
 20
45.33
 30
0.0
 40
0.352778
 41
0.352778
  0
VERTEX
  8
0
 10
97.2003
 20
45.3401
 30
0.0
 40
0.352778
 41
0.352778
  0
VERTEX
  8
0
 10
97.2515
 20
45.3401
 30
0.0
 40
0.352778
 41
0.352778
  0
VERTEX
  8
0
 10
105.327
 20
45.3401
 30
0.0
 40
0.352778
 41
0.352778
  0
VERTEX
  8
0
 10
105.327
 20
5.19006
 30
0.0
 40
0.352778
 41
0.352778
  0
VERTEX
  8
0
 10
84.3265
 20
5.19006
 30
0.0
 40
0.352778
 41
0.352778
  0
VERTEX
  8
0
 10
84.3265
 20
0.19005
 30
0.0
 40
0.352778
 41
0.352778
  0
VERTEX
  8
0
 10
63.1765
 20
0.19005
 30
0.0
 40
0.352778
 41
0.352778
  0
SEQEND
 8
0
  0
POLYLINE
  8
0
 62
     0
 66
     1
 10
0
 20
0
 30
0.0
 70
     1
 40
25.4
 41
25.4
  0
VERTEX
  8
0
 10
20.3264
 20
42.8651
 30
0.0
 40
0.352778
 41
0.352778
  0
VERTEX
  8
0
 10
20.3264
 20
42.9225
 30
0.0
 40
0.352778
 41
0.352778
  0
VERTEX
  8
0
 10
20.3378
 20
43.0949
 30
0.0
 40
0.352778
 41
0.352778
  0
VERTEX
  8
0
 10
20.3715
 20
43.3208
 30
0.0
 40
0.352778
 41
0.352778
  0
VERTEX
  8
0
 10
20.4269
 20
43.5412
 30
0.0
 40
0.352778
 41
0.352778
  0
VERTEX
  8
0
 10
20.5035
 20
43.7549
 30
0.0
 40
0.352778
 41
0.352778
  0
VERTEX
  8
0
 10
20.6003
 20
43.9599
 30
0.0
 40
0.352778
 41
0.352778
  0
VERTEX
  8
0
 10
20.7171
 20
44.155
 30
0.0
 40
0.352778
 41
0.352778
  0
VERTEX
  8
0
 10
20.8529
 20
44.3386
 30
0.0
 40
0.352778
 41
0.352778
  0
VERTEX
  8
0
 10
20.9668
 20
44.4685
 30
0.0
 40
0.352778
 41
0.352778
  0
VERTEX
  8
0
 10
21.0074
 20
44.5092
 30
0.0
 40
0.352778
 41
0.352778
  0
VERTEX
  8
0
 10
21.0479
 20
44.5497
 30
0.0
 40
0.352778
 41
0.352778
  0
VERTEX
  8
0
 10
21.1779
 20
44.6636
 30
0.0
 40
0.352778
 41
0.352778
  0
VERTEX
  8
0
 10
21.3615
 20
44.7994
 30
0.0
 40
0.352778
 41
0.352778
  0
VERTEX
  8
0
 10
21.5565
 20
44.9162
 30
0.0
 40
0.352778
 41
0.352778
  0
VERTEX
  8
0
 10
21.7617
 20
45.0132
 30
0.0
 40
0.352778
 41
0.352778
  0
VERTEX
  8
0
 10
21.9751
 20
45.0896
 30
0.0
 40
0.352778
 41
0.352778
  0
VERTEX
  8
0
 10
22.1957
 20
45.145
 30
0.0
 40
0.352778
 41
0.352778
  0
VERTEX
  8
0
 10
22.4217
 20
45.1788
 30
0.0
 40
0.352778
 41
0.352778
  0
VERTEX
  8
0
 10
22.594
 20
45.1901
 30
0.0
 40
0.352778
 41
0.352778
  0
VERTEX
  8
0
 10
22.6514
 20
45.1901
 30
0.0
 40
0.352778
 41
0.352778
  0
VERTEX
  8
0
 10
22.8514
 20
45.1901
 30
0.0
 40
0.352778
 41
0.352778
  0
VERTEX
  8
0
 10
22.9088
 20
45.1901
 30
0.0
 40
0.352778
 41
0.352778
  0
VERTEX
  8
0
 10
23.0811
 20
45.1788
 30
0.0
 40
0.352778
 41
0.352778
  0
VERTEX
  8
0
 10
23.3071
 20
45.145
 30
0.0
 40
0.352778
 41
0.352778
  0
VERTEX
  8
0
 10
23.5275
 20
45.0896
 30
0.0
 40
0.352778
 41
0.352778
  0
VERTEX
  8
0
 10
23.7411
 20
45.0132
 30
0.0
 40
0.352778
 41
0.352778
  0
VERTEX
  8
0
 10
23.9463
 20
44.9162
 30
0.0
 40
0.352778
 41
0.352778
  0
VERTEX
  8
0
 10
24.1413
 20
44.7994
 30
0.0
 40
0.352778
 41
0.352778
  0
VERTEX
  8
0
 10
24.3249
 20
44.6636
 30
0.0
 40
0.352778
 41
0.352778
  0
VERTEX
  8
0
 10
24.4549
 20
44.5497
 30
0.0
 40
0.352778
 41
0.352778
  0
VERTEX
  8
0
 10
24.4954
 20
44.5092
 30
0.0
 40
0.352778
 41
0.352778
  0
VERTEX
  8
0
 10
24.536
 20
44.4685
 30
0.0
 40
0.352778
 41
0.352778
  0
VERTEX
  8
0
 10
24.6499
 20
44.3386
 30
0.0
 40
0.352778
 41
0.352778
  0
VERTEX
  8
0
 10
24.7857
 20
44.155
 30
0.0
 40
0.352778
 41
0.352778
  0
VERTEX
  8
0
 10
24.9025
 20
43.9599
 30
0.0
 40
0.352778
 41
0.352778
  0
VERTEX
  8
0
 10
24.9994
 20
43.7549
 30
0.0
 40
0.352778
 41
0.352778
  0
VERTEX
  8
0
 10
25.0758
 20
43.5412
 30
0.0
 40
0.352778
 41
0.352778
  0
VERTEX
  8
0
 10
25.1312
 20
43.3208
 30
0.0
 40
0.352778
 41
0.352778
  0
VERTEX
  8
0
 10
25.165
 20
43.0949
 30
0.0
 40
0.352778
 41
0.352778
  0
VERTEX
  8
0
 10
25.1764
 20
42.9225
 30
0.0
 40
0.352778
 41
0.352778
  0
VERTEX
  8
0
 10
25.1764
 20
42.8651
 30
0.0
 40
0.352778
 41
0.352778
  0
VERTEX
  8
0
 10
25.1764
 20
12.665
 30
0.0
 40
0.352778
 41
0.352778
  0
VERTEX
  8
0
 10
25.1764
 20
12.6056
 30
0.0
 40
0.352778
 41
0.352778
  0
VERTEX
  8
0
 10
25.1644
 20
12.4274
 30
0.0
 40
0.352778
 41
0.352778
  0
VERTEX
  8
0
 10
25.1292
 20
12.1965
 30
0.0
 40
0.352778
 41
0.352778
  0
VERTEX
  8
0
 10
25.0719
 20
11.9737
 30
0.0
 40
0.352778
 41
0.352778
  0
VERTEX
  8
0
 10
24.9938
 20
11.7601
 30
0.0
 40
0.352778
 41
0.352778
  0
VERTEX
  8
0
 10
24.8958
 20
11.5569
 30
0.0
 40
0.352778
 41
0.352778
  0
VERTEX
  8
0
 10
24.7793
 20
11.3651
 30
0.0
 40
0.352778
 41
0.352778
  0
VERTEX
  8
0
 10
24.6454
 20
11.1861
 30
0.0
 40
0.352778
 41
0.352778
  0
VERTEX
  8
0
 10
24.4954
 20
11.0211
 30
0.0
 40
0.352778
 41
0.352778
  0
VERTEX
  8
0
 10
24.3303
 20
10.871
 30
0.0
 40
0.352778
 41
0.352778
  0
VERTEX
  8
0
 10
24.1513
 20
10.7371
 30
0.0
 40
0.352778
 41
0.352778
  0
VERTEX
  8
0
 10
23.9596
 20
10.6207
 30
0.0
 40
0.352778
 41
0.352778
  0
VERTEX
  8
0
 10
23.7564
 20
10.5228
 30
0.0
 40
0.352778
 41
0.352778
  0
VERTEX
  8
0
 10
23.5428
 20
10.4446
 30
0.0
 40
0.352778
 41
0.352778
  0
VERTEX
  8
0
 10
23.32
 20
10.3873
 30
0.0
 40
0.352778
 41
0.352778
  0
VERTEX
  8
0
 10
23.089
 20
10.3521
 30
0.0
 40
0.352778
 41
0.352778
  0
VERTEX
  8
0
 10
22.9108
 20
10.3401
 30
0.0
 40
0.352778
 41
0.352778
  0
VERTEX
  8
0
 10
22.8514
 20
10.3401
 30
0.0
 40
0.352778
 41
0.352778
  0
VERTEX
  8
0
 10
22.6514
 20
10.3401
 30
0.0
 40
0.352778
 41
0.352778
  0
VERTEX
  8
0
 10
22.5919
 20
10.3401
 30
0.0
 40
0.352778
 41
0.352778
  0
VERTEX
  8
0
 10
22.4138
 20
10.3521
 30
0.0
 40
0.352778
 41
0.352778
  0
VERTEX
  8
0
 10
22.1828
 20
10.3873
 30
0.0
 40
0.352778
 41
0.352778
  0
VERTEX
  8
0
 10
21.96
 20
10.4446
 30
0.0
 40
0.352778
 41
0.352778
  0
VERTEX
  8
0
 10
21.7464
 20
10.5228
 30
0.0
 40
0.352778
 41
0.352778
  0
VERTEX
  8
0
 10
21.5432
 20
10.6207
 30
0.0
 40
0.352778
 41
0.352778
  0
VERTEX
  8
0
 10
21.3514
 20
10.7371
 30
0.0
 40
0.352778
 41
0.352778
  0
VERTEX
  8
0
 10
21.1725
 20
10.871
 30
0.0
 40
0.352778
 41
0.352778
  0
VERTEX
  8
0
 10
21.0074
 20
11.0211
 30
0.0
 40
0.352778
 41
0.352778
  0
VERTEX
  8
0
 10
20.8574
 20
11.1861
 30
0.0
 40
0.352778
 41
0.352778
  0
VERTEX
  8
0
 10
20.7235
 20
11.3651
 30
0.0
 40
0.352778
 41
0.352778
  0
VERTEX
  8
0
 10
20.6071
 20
11.5569
 30
0.0
 40
0.352778
 41
0.352778
  0
VERTEX
  8
0
 10
20.5092
 20
11.7601
 30
0.0
 40
0.352778
 41
0.352778
  0
VERTEX
  8
0
 10
20.431
 20
11.9737
 30
0.0
 40
0.352778
 41
0.352778
  0
VERTEX
  8
0
 10
20.3736
 20
12.1965
 30
0.0
 40
0.352778
 41
0.352778
  0
VERTEX
  8
0
 10
20.3385
 20
12.4274
 30
0.0
 40
0.352778
 41
0.352778
  0
VERTEX
  8
0
 10
20.3264
 20
12.6056
 30
0.0
 40
0.352778
 41
0.352778
  0
VERTEX
  8
0
 10
20.3264
 20
12.665
 30
0.0
 40
0.352778
 41
0.352778
  0
VERTEX
  8
0
 10
20.3264
 20
42.8651
 30
0.0
 40
0.352778
 41
0.352778
  0
SEQEND
 8
0
  0
POLYLINE
  8
0
 62
     0
 66
     1
 10
0
 20
0
 30
0.0
 70
     1
 40
25.4
 41
25.4
  0
VERTEX
  8
0
 10
32.6514
 20
10.3401
 30
0.0
 40
0.352778
 41
0.352778
  0
VERTEX
  8
0
 10
32.5919
 20
10.3401
 30
0.0
 40
0.352778
 41
0.352778
  0
VERTEX
  8
0
 10
32.4138
 20
10.3521
 30
0.0
 40
0.352778
 41
0.352778
  0
VERTEX
  8
0
 10
32.1828
 20
10.3873
 30
0.0
 40
0.352778
 41
0.352778
  0
VERTEX
  8
0
 10
31.96
 20
10.4446
 30
0.0
 40
0.352778
 41
0.352778
  0
VERTEX
  8
0
 10
31.7464
 20
10.5228
 30
0.0
 40
0.352778
 41
0.352778
  0
VERTEX
  8
0
 10
31.5432
 20
10.6207
 30
0.0
 40
0.352778
 41
0.352778
  0
VERTEX
  8
0
 10
31.3514
 20
10.7371
 30
0.0
 40
0.352778
 41
0.352778
  0
VERTEX
  8
0
 10
31.1725
 20
10.871
 30
0.0
 40
0.352778
 41
0.352778
  0
VERTEX
  8
0
 10
31.0074
 20
11.0211
 30
0.0
 40
0.352778
 41
0.352778
  0
VERTEX
  8
0
 10
30.8574
 20
11.1861
 30
0.0
 40
0.352778
 41
0.352778
  0
VERTEX
  8
0
 10
30.7235
 20
11.3651
 30
0.0
 40
0.352778
 41
0.352778
  0
VERTEX
  8
0
 10
30.6071
 20
11.5569
 30
0.0
 40
0.352778
 41
0.352778
  0
VERTEX
  8
0
 10
30.5092
 20
11.7601
 30
0.0
 40
0.352778
 41
0.352778
  0
VERTEX
  8
0
 10
30.431
 20
11.9737
 30
0.0
 40
0.352778
 41
0.352778
  0
VERTEX
  8
0
 10
30.3736
 20
12.1965
 30
0.0
 40
0.352778
 41
0.352778
  0
VERTEX
  8
0
 10
30.3385
 20
12.4274
 30
0.0
 40
0.352778
 41
0.352778
  0
VERTEX
  8
0
 10
30.3264
 20
12.6056
 30
0.0
 40
0.352778
 41
0.352778
  0
VERTEX
  8
0
 10
30.3264
 20
12.665
 30
0.0
 40
0.352778
 41
0.352778
  0
VERTEX
  8
0
 10
30.3264
 20
42.8651
 30
0.0
 40
0.352778
 41
0.352778
  0
VERTEX
  8
0
 10
30.3264
 20
42.9225
 30
0.0
 40
0.352778
 41
0.352778
  0
VERTEX
  8
0
 10
30.3378
 20
43.0949
 30
0.0
 40
0.352778
 41
0.352778
  0
VERTEX
  8
0
 10
30.3715
 20
43.3208
 30
0.0
 40
0.352778
 41
0.352778
  0
VERTEX
  8
0
 10
30.4269
 20
43.5412
 30
0.0
 40
0.352778
 41
0.352778
  0
VERTEX
  8
0
 10
30.5035
 20
43.7549
 30
0.0
 40
0.352778
 41
0.352778
  0
VERTEX
  8
0
 10
30.6003
 20
43.9599
 30
0.0
 40
0.352778
 41
0.352778
  0
VERTEX
  8
0
 10
30.7171
 20
44.155
 30
0.0
 40
0.352778
 41
0.352778
  0
VERTEX
  8
0
 10
30.8529
 20
44.3386
 30
0.0
 40
0.352778
 41
0.352778
  0
VERTEX
  8
0
 10
30.9668
 20
44.4685
 30
0.0
 40
0.352778
 41
0.352778
  0
VERTEX
  8
0
 10
31.0075
 20
44.5092
 30
0.0
 40
0.352778
 41
0.352778
  0
VERTEX
  8
0
 10
31.0481
 20
44.5497
 30
0.0
 40
0.352778
 41
0.352778
  0
VERTEX
  8
0
 10
31.1779
 20
44.6636
 30
0.0
 40
0.352778
 41
0.352778
  0
VERTEX
  8
0
 10
31.3615
 20
44.7994
 30
0.0
 40
0.352778
 41
0.352778
  0
VERTEX
  8
0
 10
31.5565
 20
44.9162
 30
0.0
 40
0.352778
 41
0.352778
  0
VERTEX
  8
0
 10
31.7617
 20
45.0132
 30
0.0
 40
0.352778
 41
0.352778
  0
VERTEX
  8
0
 10
31.9751
 20
45.0896
 30
0.0
 40
0.352778
 41
0.352778
  0
VERTEX
  8
0
 10
32.1957
 20
45.145
 30
0.0
 40
0.352778
 41
0.352778
  0
VERTEX
  8
0
 10
32.4217
 20
45.1788
 30
0.0
 40
0.352778
 41
0.352778
  0
VERTEX
  8
0
 10
32.594
 20
45.1901
 30
0.0
 40
0.352778
 41
0.352778
  0
VERTEX
  8
0
 10
32.6514
 20
45.1901
 30
0.0
 40
0.352778
 41
0.352778
  0
VERTEX
  8
0
 10
32.8514
 20
45.1901
 30
0.0
 40
0.352778
 41
0.352778
  0
VERTEX
  8
0
 10
32.9108
 20
45.1901
 30
0.0
 40
0.352778
 41
0.352778
  0
VERTEX
  8
0
 10
33.0892
 20
45.1781
 30
0.0
 40
0.352778
 41
0.352778
  0
VERTEX
  8
0
 10
33.32
 20
45.1429
 30
0.0
 40
0.352778
 41
0.352778
  0
VERTEX
  8
0
 10
33.5428
 20
45.0856
 30
0.0
 40
0.352778
 41
0.352778
  0
VERTEX
  8
0
 10
33.7564
 20
45.0075
 30
0.0
 40
0.352778
 41
0.352778
  0
VERTEX
  8
0
 10
33.9596
 20
44.9094
 30
0.0
 40
0.352778
 41
0.352778
  0
VERTEX
  8
0
 10
34.1514
 20
44.7931
 30
0.0
 40
0.352778
 41
0.352778
  0
VERTEX
  8
0
 10
34.3304
 20
44.6592
 30
0.0
 40
0.352778
 41
0.352778
  0
VERTEX
  8
0
 10
34.4954
 20
44.5092
 30
0.0
 40
0.352778
 41
0.352778
  0
VERTEX
  8
0
 10
34.6456
 20
44.344
 30
0.0
 40
0.352778
 41
0.352778
  0
VERTEX
  8
0
 10
34.7793
 20
44.165
 30
0.0
 40
0.352778
 41
0.352778
  0
VERTEX
  8
0
 10
34.8958
 20
43.9733
 30
0.0
 40
0.352778
 41
0.352778
  0
VERTEX
  8
0
 10
34.9938
 20
43.7701
 30
0.0
 40
0.352778
 41
0.352778
  0
VERTEX
  8
0
 10
35.0719
 20
43.5565
 30
0.0
 40
0.352778
 41
0.352778
  0
VERTEX
  8
0
 10
35.1292
 20
43.3336
 30
0.0
 40
0.352778
 41
0.352778
  0
VERTEX
  8
0
 10
35.1644
 20
43.1028
 30
0.0
 40
0.352778
 41
0.352778
  0
VERTEX
  8
0
 10
35.1764
 20
42.9246
 30
0.0
 40
0.352778
 41
0.352778
  0
VERTEX
  8
0
 10
35.1764
 20
42.8651
 30
0.0
 40
0.352778
 41
0.352778
  0
VERTEX
  8
0
 10
35.1764
 20
12.665
 30
0.0
 40
0.352778
 41
0.352778
  0
VERTEX
  8
0
 10
35.1764
 20
12.6056
 30
0.0
 40
0.352778
 41
0.352778
  0
VERTEX
  8
0
 10
35.1644
 20
12.4274
 30
0.0
 40
0.352778
 41
0.352778
  0
VERTEX
  8
0
 10
35.1292
 20
12.1965
 30
0.0
 40
0.352778
 41
0.352778
  0
VERTEX
  8
0
 10
35.0719
 20
11.9737
 30
0.0
 40
0.352778
 41
0.352778
  0
VERTEX
  8
0
 10
34.9938
 20
11.7601
 30
0.0
 40
0.352778
 41
0.352778
  0
VERTEX
  8
0
 10
34.8958
 20
11.5569
 30
0.0
 40
0.352778
 41
0.352778
  0
VERTEX
  8
0
 10
34.7793
 20
11.3651
 30
0.0
 40
0.352778
 41
0.352778
  0
VERTEX
  8
0
 10
34.6456
 20
11.1861
 30
0.0
 40
0.352778
 41
0.352778
  0
VERTEX
  8
0
 10
34.4954
 20
11.0211
 30
0.0
 40
0.352778
 41
0.352778
  0
VERTEX
  8
0
 10
34.3304
 20
10.871
 30
0.0
 40
0.352778
 41
0.352778
  0
VERTEX
  8
0
 10
34.1514
 20
10.7371
 30
0.0
 40
0.352778
 41
0.352778
  0
VERTEX
  8
0
 10
33.9596
 20
10.6207
 30
0.0
 40
0.352778
 41
0.352778
  0
VERTEX
  8
0
 10
33.7564
 20
10.5228
 30
0.0
 40
0.352778
 41
0.352778
  0
VERTEX
  8
0
 10
33.5428
 20
10.4446
 30
0.0
 40
0.352778
 41
0.352778
  0
VERTEX
  8
0
 10
33.32
 20
10.3873
 30
0.0
 40
0.352778
 41
0.352778
  0
VERTEX
  8
0
 10
33.0892
 20
10.3521
 30
0.0
 40
0.352778
 41
0.352778
  0
VERTEX
  8
0
 10
32.9108
 20
10.3401
 30
0.0
 40
0.352778
 41
0.352778
  0
VERTEX
  8
0
 10
32.8514
 20
10.3401
 30
0.0
 40
0.352778
 41
0.352778
  0
VERTEX
  8
0
 10
32.6514
 20
10.3401
 30
0.0
 40
0.352778
 41
0.352778
  0
SEQEND
 8
0
  0
POLYLINE
  8
0
 62
     0
 66
     1
 10
0
 20
0
 30
0.0
 70
     1
 40
25.4
 41
25.4
  0
VERTEX
  8
0
 10
42.6515
 20
10.3401
 30
0.0
 40
0.352778
 41
0.352778
  0
VERTEX
  8
0
 10
42.5921
 20
10.3401
 30
0.0
 40
0.352778
 41
0.352778
  0
VERTEX
  8
0
 10
42.4138
 20
10.3521
 30
0.0
 40
0.352778
 41
0.352778
  0
VERTEX
  8
0
 10
42.1829
 20
10.3873
 30
0.0
 40
0.352778
 41
0.352778
  0
VERTEX
  8
0
 10
41.9601
 20
10.4446
 30
0.0
 40
0.352778
 41
0.352778
  0
VERTEX
  8
0
 10
41.7464
 20
10.5228
 30
0.0
 40
0.352778
 41
0.352778
  0
VERTEX
  8
0
 10
41.5432
 20
10.6207
 30
0.0
 40
0.352778
 41
0.352778
  0
VERTEX
  8
0
 10
41.3515
 20
10.7371
 30
0.0
 40
0.352778
 41
0.352778
  0
VERTEX
  8
0
 10
41.1725
 20
10.871
 30
0.0
 40
0.352778
 41
0.352778
  0
VERTEX
  8
0
 10
41.0075
 20
11.0211
 30
0.0
 40
0.352778
 41
0.352778
  0
VERTEX
  8
0
 10
40.8574
 20
11.1861
 30
0.0
 40
0.352778
 41
0.352778
  0
VERTEX
  8
0
 10
40.7235
 20
11.3651
 30
0.0
 40
0.352778
 41
0.352778
  0
VERTEX
  8
0
 10
40.6071
 20
11.5569
 30
0.0
 40
0.352778
 41
0.352778
  0
VERTEX
  8
0
 10
40.5092
 20
11.7601
 30
0.0
 40
0.352778
 41
0.352778
  0
VERTEX
  8
0
 10
40.431
 20
11.9737
 30
0.0
 40
0.352778
 41
0.352778
  0
VERTEX
  8
0
 10
40.3736
 20
12.1965
 30
0.0
 40
0.352778
 41
0.352778
  0
VERTEX
  8
0
 10
40.3385
 20
12.4274
 30
0.0
 40
0.352778
 41
0.352778
  0
VERTEX
  8
0
 10
40.3264
 20
12.6056
 30
0.0
 40
0.352778
 41
0.352778
  0
VERTEX
  8
0
 10
40.3264
 20
12.665
 30
0.0
 40
0.352778
 41
0.352778
  0
VERTEX
  8
0
 10
40.3264
 20
42.8651
 30
0.0
 40
0.352778
 41
0.352778
  0
VERTEX
  8
0
 10
40.3264
 20
42.9225
 30
0.0
 40
0.352778
 41
0.352778
  0
VERTEX
  8
0
 10
40.3378
 20
43.0949
 30
0.0
 40
0.352778
 41
0.352778
  0
VERTEX
  8
0
 10
40.3715
 20
43.3208
 30
0.0
 40
0.352778
 41
0.352778
  0
VERTEX
  8
0
 10
40.4269
 20
43.5412
 30
0.0
 40
0.352778
 41
0.352778
  0
VERTEX
  8
0
 10
40.5035
 20
43.7549
 30
0.0
 40
0.352778
 41
0.352778
  0
VERTEX
  8
0
 10
40.6003
 20
43.9599
 30
0.0
 40
0.352778
 41
0.352778
  0
VERTEX
  8
0
 10
40.7171
 20
44.155
 30
0.0
 40
0.352778
 41
0.352778
  0
VERTEX
  8
0
 10
40.8529
 20
44.3386
 30
0.0
 40
0.352778
 41
0.352778
  0
VERTEX
  8
0
 10
40.9668
 20
44.4685
 30
0.0
 40
0.352778
 41
0.352778
  0
VERTEX
  8
0
 10
41.0075
 20
44.5092
 30
0.0
 40
0.352778
 41
0.352778
  0
VERTEX
  8
0
 10
41.0481
 20
44.5497
 30
0.0
 40
0.352778
 41
0.352778
  0
VERTEX
  8
0
 10
41.1779
 20
44.6636
 30
0.0
 40
0.352778
 41
0.352778
  0
VERTEX
  8
0
 10
41.3615
 20
44.7994
 30
0.0
 40
0.352778
 41
0.352778
  0
VERTEX
  8
0
 10
41.5567
 20
44.9162
 30
0.0
 40
0.352778
 41
0.352778
  0
VERTEX
  8
0
 10
41.7617
 20
45.0132
 30
0.0
 40
0.352778
 41
0.352778
  0
VERTEX
  8
0
 10
41.9753
 20
45.0896
 30
0.0
 40
0.352778
 41
0.352778
  0
VERTEX
  8
0
 10
42.1957
 20
45.145
 30
0.0
 40
0.352778
 41
0.352778
  0
VERTEX
  8
0
 10
42.4217
 20
45.1788
 30
0.0
 40
0.352778
 41
0.352778
  0
VERTEX
  8
0
 10
42.594
 20
45.1901
 30
0.0
 40
0.352778
 41
0.352778
  0
VERTEX
  8
0
 10
42.6515
 20
45.1901
 30
0.0
 40
0.352778
 41
0.352778
  0
VERTEX
  8
0
 10
42.8514
 20
45.1901
 30
0.0
 40
0.352778
 41
0.352778
  0
VERTEX
  8
0
 10
42.9089
 20
45.1901
 30
0.0
 40
0.352778
 41
0.352778
  0
VERTEX
  8
0
 10
43.0813
 20
45.1788
 30
0.0
 40
0.352778
 41
0.352778
  0
VERTEX
  8
0
 10
43.3071
 20
45.145
 30
0.0
 40
0.352778
 41
0.352778
  0
VERTEX
  8
0
 10
43.5276
 20
45.0896
 30
0.0
 40
0.352778
 41
0.352778
  0
VERTEX
  8
0
 10
43.7411
 20
45.0132
 30
0.0
 40
0.352778
 41
0.352778
  0
VERTEX
  8
0
 10
43.9462
 20
44.9162
 30
0.0
 40
0.352778
 41
0.352778
  0
VERTEX
  8
0
 10
44.1414
 20
44.7994
 30
0.0
 40
0.352778
 41
0.352778
  0
VERTEX
  8
0
 10
44.3249
 20
44.6636
 30
0.0
 40
0.352778
 41
0.352778
  0
VERTEX
  8
0
 10
44.4549
 20
44.5497
 30
0.0
 40
0.352778
 41
0.352778
  0
VERTEX
  8
0
 10
44.4956
 20
44.5092
 30
0.0
 40
0.352778
 41
0.352778
  0
VERTEX
  8
0
 10
44.5361
 20
44.4685
 30
0.0
 40
0.352778
 41
0.352778
  0
VERTEX
  8
0
 10
44.6499
 20
44.3386
 30
0.0
 40
0.352778
 41
0.352778
  0
VERTEX
  8
0
 10
44.7858
 20
44.155
 30
0.0
 40
0.352778
 41
0.352778
  0
VERTEX
  8
0
 10
44.9025
 20
43.9599
 30
0.0
 40
0.352778
 41
0.352778
  0
VERTEX
  8
0
 10
44.9994
 20
43.7549
 30
0.0
 40
0.352778
 41
0.352778
  0
VERTEX
  8
0
 10
45.0758
 20
43.5412
 30
0.0
 40
0.352778
 41
0.352778
  0
VERTEX
  8
0
 10
45.1312
 20
43.3208
 30
0.0
 40
0.352778
 41
0.352778
  0
VERTEX
  8
0
 10
45.165
 20
43.0949
 30
0.0
 40
0.352778
 41
0.352778
  0
VERTEX
  8
0
 10
45.1764
 20
42.9225
 30
0.0
 40
0.352778
 41
0.352778
  0
VERTEX
  8
0
 10
45.1764
 20
42.8651
 30
0.0
 40
0.352778
 41
0.352778
  0
VERTEX
  8
0
 10
45.1764
 20
12.665
 30
0.0
 40
0.352778
 41
0.352778
  0
VERTEX
  8
0
 10
45.1764
 20
12.6056
 30
0.0
 40
0.352778
 41
0.352778
  0
VERTEX
  8
0
 10
45.1644
 20
12.4274
 30
0.0
 40
0.352778
 41
0.352778
  0
VERTEX
  8
0
 10
45.1292
 20
12.1965
 30
0.0
 40
0.352778
 41
0.352778
  0
VERTEX
  8
0
 10
45.0719
 20
11.9737
 30
0.0
 40
0.352778
 41
0.352778
  0
VERTEX
  8
0
 10
44.9938
 20
11.7601
 30
0.0
 40
0.352778
 41
0.352778
  0
VERTEX
  8
0
 10
44.8958
 20
11.5569
 30
0.0
 40
0.352778
 41
0.352778
  0
VERTEX
  8
0
 10
44.7793
 20
11.3651
 30
0.0
 40
0.352778
 41
0.352778
  0
VERTEX
  8
0
 10
44.6456
 20
11.1861
 30
0.0
 40
0.352778
 41
0.352778
  0
VERTEX
  8
0
 10
44.4954
 20
11.0211
 30
0.0
 40
0.352778
 41
0.352778
  0
VERTEX
  8
0
 10
44.3304
 20
10.871
 30
0.0
 40
0.352778
 41
0.352778
  0
VERTEX
  8
0
 10
44.1514
 20
10.7371
 30
0.0
 40
0.352778
 41
0.352778
  0
VERTEX
  8
0
 10
43.9596
 20
10.6207
 30
0.0
 40
0.352778
 41
0.352778
  0
VERTEX
  8
0
 10
43.7564
 20
10.5228
 30
0.0
 40
0.352778
 41
0.352778
  0
VERTEX
  8
0
 10
43.5428
 20
10.4446
 30
0.0
 40
0.352778
 41
0.352778
  0
VERTEX
  8
0
 10
43.32
 20
10.3873
 30
0.0
 40
0.352778
 41
0.352778
  0
VERTEX
  8
0
 10
43.0892
 20
10.3521
 30
0.0
 40
0.352778
 41
0.352778
  0
VERTEX
  8
0
 10
42.9108
 20
10.3401
 30
0.0
 40
0.352778
 41
0.352778
  0
VERTEX
  8
0
 10
42.8514
 20
10.3401
 30
0.0
 40
0.352778
 41
0.352778
  0
VERTEX
  8
0
 10
42.6515
 20
10.3401
 30
0.0
 40
0.352778
 41
0.352778
  0
SEQEND
 8
0
  0
POLYLINE
  8
0
 62
     0
 66
     1
 10
0
 20
0
 30
0.0
 70
     1
 40
25.4
 41
25.4
  0
VERTEX
  8
0
 10
75.3265
 20
75.4151
 30
0.0
 40
0.352778
 41
0.352778
  0
VERTEX
  8
0
 10
75.3265
 20
75.3532
 30
0.0
 40
0.352778
 41
0.352778
  0
VERTEX
  8
0
 10
75.314
 20
75.1672
 30
0.0
 40
0.352778
 41
0.352778
  0
VERTEX
  8
0
 10
75.2772
 20
74.9264
 30
0.0
 40
0.352778
 41
0.352778
  0
VERTEX
  8
0
 10
75.2175
 20
74.694
 30
0.0
 40
0.352778
 41
0.352778
  0
VERTEX
  8
0
 10
75.136
 20
74.4713
 30
0.0
 40
0.352778
 41
0.352778
  0
VERTEX
  8
0
 10
75.0338
 20
74.2593
 30
0.0
 40
0.352778
 41
0.352778
  0
VERTEX
  8
0
 10
74.9124
 20
74.0593
 30
0.0
 40
0.352778
 41
0.352778
  0
VERTEX
  8
0
 10
74.7728
 20
73.8726
 30
0.0
 40
0.352778
 41
0.352778
  0
VERTEX
  8
0
 10
74.6163
 20
73.7004
 30
0.0
 40
0.352778
 41
0.352778
  0
VERTEX
  8
0
 10
74.444
 20
73.5439
 30
0.0
 40
0.352778
 41
0.352778
  0
VERTEX
  8
0
 10
74.2574
 20
73.4043
 30
0.0
 40
0.352778
 41
0.352778
  0
VERTEX
  8
0
 10
74.0574
 20
73.2828
 30
0.0
 40
0.352778
 41
0.352778
  0
VERTEX
  8
0
 10
73.8454
 20
73.1807
 30
0.0
 40
0.352778
 41
0.352778
  0
VERTEX
  8
0
 10
73.6226
 20
73.0992
 30
0.0
 40
0.352778
 41
0.352778
  0
VERTEX
  8
0
 10
73.3901
 20
73.0394
 30
0.0
 40
0.352778
 41
0.352778
  0
VERTEX
  8
0
 10
73.1494
 20
73.0026
 30
0.0
 40
0.352778
 41
0.352778
  0
VERTEX
  8
0
 10
72.9635
 20
72.9901
 30
0.0
 40
0.352778
 41
0.352778
  0
VERTEX
  8
0
 10
72.9015
 20
72.9901
 30
0.0
 40
0.352778
 41
0.352778
  0
VERTEX
  8
0
 10
72.8396
 20
72.9901
 30
0.0
 40
0.352778
 41
0.352778
  0
VERTEX
  8
0
 10
72.6535
 20
73.0026
 30
0.0
 40
0.352778
 41
0.352778
  0
VERTEX
  8
0
 10
72.4128
 20
73.0394
 30
0.0
 40
0.352778
 41
0.352778
  0
VERTEX
  8
0
 10
72.1804
 20
73.0992
 30
0.0
 40
0.352778
 41
0.352778
  0
VERTEX
  8
0
 10
71.9576
 20
73.1807
 30
0.0
 40
0.352778
 41
0.352778
  0
VERTEX
  8
0
 10
71.7456
 20
73.2828
 30
0.0
 40
0.352778
 41
0.352778
  0
VERTEX
  8
0
 10
71.5457
 20
73.4043
 30
0.0
 40
0.352778
 41
0.352778
  0
VERTEX
  8
0
 10
71.3589
 20
73.5439
 30
0.0
 40
0.352778
 41
0.352778
  0
VERTEX
  8
0
 10
71.1868
 20
73.7004
 30
0.0
 40
0.352778
 41
0.352778
  0
VERTEX
  8
0
 10
71.0303
 20
73.8726
 30
0.0
 40
0.352778
 41
0.352778
  0
VERTEX
  8
0
 10
70.8907
 20
74.0593
 30
0.0
 40
0.352778
 41
0.352778
  0
VERTEX
  8
0
 10
70.7692
 20
74.2593
 30
0.0
 40
0.352778
 41
0.352778
  0
VERTEX
  8
0
 10
70.6671
 20
74.4713
 30
0.0
 40
0.352778
 41
0.352778
  0
VERTEX
  8
0
 10
70.5856
 20
74.694
 30
0.0
 40
0.352778
 41
0.352778
  0
VERTEX
  8
0
 10
70.5258
 20
74.9264
 30
0.0
 40
0.352778
 41
0.352778
  0
VERTEX
  8
0
 10
70.489
 20
75.1672
 30
0.0
 40
0.352778
 41
0.352778
  0
VERTEX
  8
0
 10
70.4765
 20
75.3532
 30
0.0
 40
0.352778
 41
0.352778
  0
VERTEX
  8
0
 10
70.4765
 20
75.4151
 30
0.0
 40
0.352778
 41
0.352778
  0
VERTEX
  8
0
 10
70.4765
 20
145.415
 30
0.0
 40
0.352778
 41
0.352778
  0
VERTEX
  8
0
 10
70.4765
 20
145.478
 30
0.0
 40
0.352778
 41
0.352778
  0
VERTEX
  8
0
 10
70.489
 20
145.664
 30
0.0
 40
0.352778
 41
0.352778
  0
VERTEX
  8
0
 10
70.5258
 20
145.904
 30
0.0
 40
0.352778
 41
0.352778
  0
VERTEX
  8
0
 10
70.5856
 20
146.136
 30
0.0
 40
0.352778
 41
0.352778
  0
VERTEX
  8
0
 10
70.6671
 20
146.36
 30
0.0
 40
0.352778
 41
0.352778
  0
VERTEX
  8
0
 10
70.7692
 20
146.571
 30
0.0
 40
0.352778
 41
0.352778
  0
VERTEX
  8
0
 10
70.8907
 20
146.771
 30
0.0
 40
0.352778
 41
0.352778
  0
VERTEX
  8
0
 10
71.0303
 20
146.958
 30
0.0
 40
0.352778
 41
0.352778
  0
VERTEX
  8
0
 10
71.1868
 20
147.131
 30
0.0
 40
0.352778
 41
0.352778
  0
VERTEX
  8
0
 10
71.3589
 20
147.286
 30
0.0
 40
0.352778
 41
0.352778
  0
VERTEX
  8
0
 10
71.5457
 20
147.426
 30
0.0
 40
0.352778
 41
0.352778
  0
VERTEX
  8
0
 10
71.7456
 20
147.547
 30
0.0
 40
0.352778
 41
0.352778
  0
VERTEX
  8
0
 10
71.9576
 20
147.65
 30
0.0
 40
0.352778
 41
0.352778
  0
VERTEX
  8
0
 10
72.1804
 20
147.732
 30
0.0
 40
0.352778
 41
0.352778
  0
VERTEX
  8
0
 10
72.4128
 20
147.792
 30
0.0
 40
0.352778
 41
0.352778
  0
VERTEX
  8
0
 10
72.6535
 20
147.828
 30
0.0
 40
0.352778
 41
0.352778
  0
VERTEX
  8
0
 10
72.8396
 20
147.84
 30
0.0
 40
0.352778
 41
0.352778
  0
VERTEX
  8
0
 10
72.9015
 20
147.84
 30
0.0
 40
0.352778
 41
0.352778
  0
VERTEX
  8
0
 10
72.9635
 20
147.84
 30
0.0
 40
0.352778
 41
0.352778
  0
VERTEX
  8
0
 10
73.1494
 20
147.828
 30
0.0
 40
0.352778
 41
0.352778
  0
VERTEX
  8
0
 10
73.3901
 20
147.792
 30
0.0
 40
0.352778
 41
0.352778
  0
VERTEX
  8
0
 10
73.6226
 20
147.732
 30
0.0
 40
0.352778
 41
0.352778
  0
VERTEX
  8
0
 10
73.8454
 20
147.65
 30
0.0
 40
0.352778
 41
0.352778
  0
VERTEX
  8
0
 10
74.0574
 20
147.547
 30
0.0
 40
0.352778
 41
0.352778
  0
VERTEX
  8
0
 10
74.2574
 20
147.426
 30
0.0
 40
0.352778
 41
0.352778
  0
VERTEX
  8
0
 10
74.444
 20
147.286
 30
0.0
 40
0.352778
 41
0.352778
  0
VERTEX
  8
0
 10
74.6163
 20
147.131
 30
0.0
 40
0.352778
 41
0.352778
  0
VERTEX
  8
0
 10
74.7728
 20
146.958
 30
0.0
 40
0.352778
 41
0.352778
  0
VERTEX
  8
0
 10
74.9124
 20
146.771
 30
0.0
 40
0.352778
 41
0.352778
  0
VERTEX
  8
0
 10
75.0338
 20
146.571
 30
0.0
 40
0.352778
 41
0.352778
  0
VERTEX
  8
0
 10
75.136
 20
146.36
 30
0.0
 40
0.352778
 41
0.352778
  0
VERTEX
  8
0
 10
75.2175
 20
146.136
 30
0.0
 40
0.352778
 41
0.352778
  0
VERTEX
  8
0
 10
75.2772
 20
145.904
 30
0.0
 40
0.352778
 41
0.352778
  0
VERTEX
  8
0
 10
75.314
 20
145.664
 30
0.0
 40
0.352778
 41
0.352778
  0
VERTEX
  8
0
 10
75.3265
 20
145.478
 30
0.0
 40
0.352778
 41
0.352778
  0
VERTEX
  8
0
 10
75.3265
 20
145.415
 30
0.0
 40
0.352778
 41
0.352778
  0
VERTEX
  8
0
 10
75.3265
 20
75.4151
 30
0.0
 40
0.352778
 41
0.352778
  0
SEQEND
 8
0
  0
POLYLINE
  8
0
 62
     0
 66
     1
 10
0
 20
0
 30
0.0
 70
     1
 40
25.4
 41
25.4
  0
VERTEX
  8
0
 10
210.476
 20
10.3401
 30
0.0
 40
0.352778
 41
0.352778
  0
VERTEX
  8
0
 10
215.476
 20
10.3401
 30
0.0
 40
0.352778
 41
0.352778
  0
VERTEX
  8
0
 10
215.476
 20
20.19
 30
0.0
 40
0.352778
 41
0.352778
  0
VERTEX
  8
0
 10
210.476
 20
20.19
 30
0.0
 40
0.352778
 41
0.352778
  0
VERTEX
  8
0
 10
210.476
 20
30.34
 30
0.0
 40
0.352778
 41
0.352778
  0
VERTEX
  8
0
 10
215.476
 20
30.34
 30
0.0
 40
0.352778
 41
0.352778
  0
VERTEX
  8
0
 10
215.476
 20
40.1901
 30
0.0
 40
0.352778
 41
0.352778
  0
VERTEX
  8
0
 10
210.476
 20
40.1901
 30
0.0
 40
0.352778
 41
0.352778
  0
VERTEX
  8
0
 10
210.476
 20
50.3401
 30
0.0
 40
0.352778
 41
0.352778
  0
VERTEX
  8
0
 10
231.476
 20
50.3401
 30
0.0
 40
0.352778
 41
0.352778
  0
VERTEX
  8
0
 10
231.476
 20
55.3401
 30
0.0
 40
0.352778
 41
0.352778
  0
VERTEX
  8
0
 10
252.626
 20
55.3401
 30
0.0
 40
0.352778
 41
0.352778
  0
VERTEX
  8
0
 10
252.626
 20
50.3401
 30
0.0
 40
0.352778
 41
0.352778
  0
VERTEX
  8
0
 10
273.476
 20
50.3401
 30
0.0
 40
0.352778
 41
0.352778
  0
VERTEX
  8
0
 10
273.476
 20
55.3401
 30
0.0
 40
0.352778
 41
0.352778
  0
VERTEX
  8
0
 10
294.626
 20
55.3401
 30
0.0
 40
0.352778
 41
0.352778
  0
VERTEX
  8
0
 10
294.626
 20
50.3401
 30
0.0
 40
0.352778
 41
0.352778
  0
VERTEX
  8
0
 10
315.626
 20
50.3401
 30
0.0
 40
0.352778
 41
0.352778
  0
VERTEX
  8
0
 10
315.626
 20
10.1901
 30
0.0
 40
0.352778
 41
0.352778
  0
VERTEX
  8
0
 10
307.551
 20
10.1901
 30
0.0
 40
0.352778
 41
0.352778
  0
VERTEX
  8
0
 10
307.5
 20
10.1901
 30
0.0
 40
0.352778
 41
0.352778
  0
VERTEX
  8
0
 10
307.347
 20
10.2003
 30
0.0
 40
0.352778
 41
0.352778
  0
VERTEX
  8
0
 10
307.144
 20
10.2303
 30
0.0
 40
0.352778
 41
0.352778
  0
VERTEX
  8
0
 10
306.949
 20
10.2798
 30
0.0
 40
0.352778
 41
0.352778
  0
VERTEX
  8
0
 10
306.758
 20
10.348
 30
0.0
 40
0.352778
 41
0.352778
  0
VERTEX
  8
0
 10
306.575
 20
10.4345
 30
0.0
 40
0.352778
 41
0.352778
  0
VERTEX
  8
0
 10
306.4
 20
10.5387
 30
0.0
 40
0.352778
 41
0.352778
  0
VERTEX
  8
0
 10
306.237
 20
10.66
 30
0.0
 40
0.352778
 41
0.352778
  0
VERTEX
  8
0
 10
306.121
 20
10.7616
 30
0.0
 40
0.352778
 41
0.352778
  0
VERTEX
  8
0
 10
306.085
 20
10.7978
 30
0.0
 40
0.352778
 41
0.352778
  0
VERTEX
  8
0
 10
306.049
 20
10.8341
 30
0.0
 40
0.352778
 41
0.352778
  0
VERTEX
  8
0
 10
305.947
 20
10.95
 30
0.0
 40
0.352778
 41
0.352778
  0
VERTEX
  8
0
 10
305.825
 20
11.1139
 30
0.0
 40
0.352778
 41
0.352778
  0
VERTEX
  8
0
 10
305.721
 20
11.288
 30
0.0
 40
0.352778
 41
0.352778
  0
VERTEX
  8
0
 10
305.635
 20
11.471
 30
0.0
 40
0.352778
 41
0.352778
  0
VERTEX
  8
0
 10
305.567
 20
11.6616
 30
0.0
 40
0.352778
 41
0.352778
  0
VERTEX
  8
0
 10
305.517
 20
11.8583
 30
0.0
 40
0.352778
 41
0.352778
  0
VERTEX
  8
0
 10
305.487
 20
12.06
 30
0.0
 40
0.352778
 41
0.352778
  0
VERTEX
  8
0
 10
305.476
 20
12.2138
 30
0.0
 40
0.352778
 41
0.352778
  0
VERTEX
  8
0
 10
305.476
 20
12.265
 30
0.0
 40
0.352778
 41
0.352778
  0
VERTEX
  8
0
 10
305.476
 20
13.265
 30
0.0
 40
0.352778
 41
0.352778
  0
VERTEX
  8
0
 10
305.476
 20
13.3142
 30
0.0
 40
0.352778
 41
0.352778
  0
VERTEX
  8
0
 10
305.467
 20
13.4619
 30
0.0
 40
0.352778
 41
0.352778
  0
VERTEX
  8
0
 10
305.438
 20
13.653
 30
0.0
 40
0.352778
 41
0.352778
  0
VERTEX
  8
0
 10
305.39
 20
13.8375
 30
0.0
 40
0.352778
 41
0.352778
  0
VERTEX
  8
0
 10
305.325
 20
14.0144
 30
0.0
 40
0.352778
 41
0.352778
  0
VERTEX
  8
0
 10
305.244
 20
14.1826
 30
0.0
 40
0.352778
 41
0.352778
  0
VERTEX
  8
0
 10
305.149
 20
14.3414
 30
0.0
 40
0.352778
 41
0.352778
  0
VERTEX
  8
0
 10
305.037
 20
14.4896
 30
0.0
 40
0.352778
 41
0.352778
  0
VERTEX
  8
0
 10
304.912
 20
14.6262
 30
0.0
 40
0.352778
 41
0.352778
  0
VERTEX
  8
0
 10
304.776
 20
14.7506
 30
0.0
 40
0.352778
 41
0.352778
  0
VERTEX
  8
0
 10
304.628
 20
14.8614
 30
0.0
 40
0.352778
 41
0.352778
  0
VERTEX
  8
0
 10
304.469
 20
14.9578
 30
0.0
 40
0.352778
 41
0.352778
  0
VERTEX
  8
0
 10
304.301
 20
15.0388
 30
0.0
 40
0.352778
 41
0.352778
  0
VERTEX
  8
0
 10
304.124
 20
15.1035
 30
0.0
 40
0.352778
 41
0.352778
  0
VERTEX
  8
0
 10
303.94
 20
15.151
 30
0.0
 40
0.352778
 41
0.352778
  0
VERTEX
  8
0
 10
303.749
 20
15.1801
 30
0.0
 40
0.352778
 41
0.352778
  0
VERTEX
  8
0
 10
303.601
 20
15.19
 30
0.0
 40
0.352778
 41
0.352778
  0
VERTEX
  8
0
 10
303.551
 20
15.19
 30
0.0
 40
0.352778
 41
0.352778
  0
VERTEX
  8
0
 10
298.551
 20
15.19
 30
0.0
 40
0.352778
 41
0.352778
  0
VERTEX
  8
0
 10
298.476
 20
15.19
 30
0.0
 40
0.352778
 41
0.352778
  0
VERTEX
  8
0
 10
298.253
 20
15.175
 30
0.0
 40
0.352778
 41
0.352778
  0
VERTEX
  8
0
 10
297.963
 20
15.1307
 30
0.0
 40
0.352778
 41
0.352778
  0
VERTEX
  8
0
 10
297.682
 20
15.0586
 30
0.0
 40
0.352778
 41
0.352778
  0
VERTEX
  8
0
 10
297.414
 20
14.9603
 30
0.0
 40
0.352778
 41
0.352778
  0
VERTEX
  8
0
 10
297.157
 20
14.8371
 30
0.0
 40
0.352778
 41
0.352778
  0
VERTEX
  8
0
 10
296.917
 20
14.6906
 30
0.0
 40
0.352778
 41
0.352778
  0
VERTEX
  8
0
 10
296.692
 20
14.5221
 30
0.0
 40
0.352778
 41
0.352778
  0
VERTEX
  8
0
 10
296.483
 20
14.3333
 30
0.0
 40
0.352778
 41
0.352778
  0
VERTEX
  8
0
 10
296.294
 20
14.1257
 30
0.0
 40
0.352778
 41
0.352778
  0
VERTEX
  8
0
 10
296.126
 20
13.9004
 30
0.0
 40
0.352778
 41
0.352778
  0
VERTEX
  8
0
 10
295.981
 20
13.6593
 30
0.0
 40
0.352778
 41
0.352778
  0
VERTEX
  8
0
 10
295.857
 20
13.4036
 30
0.0
 40
0.352778
 41
0.352778
  0
VERTEX
  8
0
 10
295.758
 20
13.1349
 30
0.0
 40
0.352778
 41
0.352778
  0
VERTEX
  8
0
 10
295.686
 20
12.8545
 30
0.0
 40
0.352778
 41
0.352778
  0
VERTEX
  8
0
 10
295.642
 20
12.5641
 30
0.0
 40
0.352778
 41
0.352778
  0
VERTEX
  8
0
 10
295.626
 20
12.3398
 30
0.0
 40
0.352778
 41
0.352778
  0
VERTEX
  8
0
 10
295.626
 20
12.265
 30
0.0
 40
0.352778
 41
0.352778
  0
VERTEX
  8
0
 10
295.626
 20
8.26503
 30
0.0
 40
0.352778
 41
0.352778
  0
VERTEX
  8
0
 10
295.626
 20
8.19276
 30
0.0
 40
0.352778
 41
0.352778
  0
VERTEX
  8
0
 10
295.642
 20
7.97597
 30
0.0
 40
0.352778
 41
0.352778
  0
VERTEX
  8
0
 10
295.683
 20
7.69174
 30
0.0
 40
0.352778
 41
0.352778
  0
VERTEX
  8
0
 10
295.753
 20
7.41433
 30
0.0
 40
0.352778
 41
0.352778
  0
VERTEX
  8
0
 10
295.85
 20
7.14572
 30
0.0
 40
0.352778
 41
0.352778
  0
VERTEX
  8
0
 10
295.971
 20
6.88769
 30
0.0
 40
0.352778
 41
0.352778
  0
VERTEX
  8
0
 10
296.118
 20
6.64225
 30
0.0
 40
0.352778
 41
0.352778
  0
VERTEX
  8
0
 10
296.289
 20
6.41135
 30
0.0
 40
0.352778
 41
0.352778
  0
VERTEX
  8
0
 10
296.432
 20
6.24789
 30
0.0
 40
0.352778
 41
0.352778
  0
VERTEX
  8
0
 10
296.483
 20
6.19678
 30
0.0
 40
0.352778
 41
0.352778
  0
VERTEX
  8
0
 10
296.535
 20
6.14572
 30
0.0
 40
0.352778
 41
0.352778
  0
VERTEX
  8
0
 10
296.699
 20
6.0025
 30
0.0
 40
0.352778
 41
0.352778
  0
VERTEX
  8
0
 10
296.929
 20
5.83154
 30
0.0
 40
0.352778
 41
0.352778
  0
VERTEX
  8
0
 10
297.175
 20
5.68468
 30
0.0
 40
0.352778
 41
0.352778
  0
VERTEX
  8
0
 10
297.432
 20
5.56272
 30
0.0
 40
0.352778
 41
0.352778
  0
VERTEX
  8
0
 10
297.701
 20
5.46653
 30
0.0
 40
0.352778
 41
0.352778
  0
VERTEX
  8
0
 10
297.979
 20
5.39681
 30
0.0
 40
0.352778
 41
0.352778
  0
VERTEX
  8
0
 10
298.263
 20
5.35439
 30
0.0
 40
0.352778
 41
0.352778
  0
VERTEX
  8
0
 10
298.479
 20
5.34006
 30
0.0
 40
0.352778
 41
0.352778
  0
VERTEX
  8
0
 10
298.551
 20
5.34006
 30
0.0
 40
0.352778
 41
0.352778
  0
VERTEX
  8
0
 10
315.626
 20
5.34006
 30
0.0
 40
0.352778
 41
0.352778
  0
VERTEX
  8
0
 10
315.626
 20
0.19005
 30
0.0
 40
0.352778
 41
0.352778
  0
VERTEX
  8
0
 10
294.476
 20
0.19005
 30
0.0
 40
0.352778
 41
0.352778
  0
VERTEX
  8
0
 10
294.476
 20
5.19006
 30
0.0
 40
0.352778
 41
0.352778
  0
VERTEX
  8
0
 10
273.626
 20
5.19006
 30
0.0
 40
0.352778
 41
0.352778
  0
VERTEX
  8
0
 10
273.626
 20
0.19005
 30
0.0
 40
0.352778
 41
0.352778
  0
VERTEX
  8
0
 10
252.476
 20
0.19005
 30
0.0
 40
0.352778
 41
0.352778
  0
VERTEX
  8
0
 10
252.476
 20
5.19006
 30
0.0
 40
0.352778
 41
0.352778
  0
VERTEX
  8
0
 10
231.626
 20
5.19006
 30
0.0
 40
0.352778
 41
0.352778
  0
VERTEX
  8
0
 10
231.626
 20
0.19005
 30
0.0
 40
0.352778
 41
0.352778
  0
VERTEX
  8
0
 10
210.476
 20
0.19005
 30
0.0
 40
0.352778
 41
0.352778
  0
VERTEX
  8
0
 10
210.476
 20
10.3401
 30
0.0
 40
0.352778
 41
0.352778
  0
SEQEND
 8
0
  0
POLYLINE
  8
0
 62
     0
 66
     1
 10
0
 20
0
 30
0.0
 70
     1
 40
25.4
 41
25.4
  0
VERTEX
  8
0
 10
255.476
 20
42.8651
 30
0.0
 40
0.352778
 41
0.352778
  0
VERTEX
  8
0
 10
255.476
 20
42.9225
 30
0.0
 40
0.352778
 41
0.352778
  0
VERTEX
  8
0
 10
255.465
 20
43.0949
 30
0.0
 40
0.352778
 41
0.352778
  0
VERTEX
  8
0
 10
255.432
 20
43.3208
 30
0.0
 40
0.352778
 41
0.352778
  0
VERTEX
  8
0
 10
255.376
 20
43.5412
 30
0.0
 40
0.352778
 41
0.352778
  0
VERTEX
  8
0
 10
255.3
 20
43.7549
 30
0.0
 40
0.352778
 41
0.352778
  0
VERTEX
  8
0
 10
255.203
 20
43.9599
 30
0.0
 40
0.352778
 41
0.352778
  0
VERTEX
  8
0
 10
255.086
 20
44.155
 30
0.0
 40
0.352778
 41
0.352778
  0
VERTEX
  8
0
 10
254.95
 20
44.3386
 30
0.0
 40
0.352778
 41
0.352778
  0
VERTEX
  8
0
 10
254.836
 20
44.4685
 30
0.0
 40
0.352778
 41
0.352778
  0
VERTEX
  8
0
 10
254.796
 20
44.5092
 30
0.0
 40
0.352778
 41
0.352778
  0
VERTEX
  8
0
 10
254.756
 20
44.5497
 30
0.0
 40
0.352778
 41
0.352778
  0
VERTEX
  8
0
 10
254.625
 20
44.6636
 30
0.0
 40
0.352778
 41
0.352778
  0
VERTEX
  8
0
 10
254.442
 20
44.7994
 30
0.0
 40
0.352778
 41
0.352778
  0
VERTEX
  8
0
 10
254.247
 20
44.9162
 30
0.0
 40
0.352778
 41
0.352778
  0
VERTEX
  8
0
 10
254.042
 20
45.0132
 30
0.0
 40
0.352778
 41
0.352778
  0
VERTEX
  8
0
 10
253.828
 20
45.0896
 30
0.0
 40
0.352778
 41
0.352778
  0
VERTEX
  8
0
 10
253.607
 20
45.145
 30
0.0
 40
0.352778
 41
0.352778
  0
VERTEX
  8
0
 10
253.382
 20
45.1788
 30
0.0
 40
0.352778
 41
0.352778
  0
VERTEX
  8
0
 10
253.21
 20
45.1901
 30
0.0
 40
0.352778
 41
0.352778
  0
VERTEX
  8
0
 10
253.151
 20
45.1901
 30
0.0
 40
0.352778
 41
0.352778
  0
VERTEX
  8
0
 10
252.951
 20
45.1901
 30
0.0
 40
0.352778
 41
0.352778
  0
VERTEX
  8
0
 10
252.892
 20
45.1901
 30
0.0
 40
0.352778
 41
0.352778
  0
VERTEX
  8
0
 10
252.714
 20
45.1781
 30
0.0
 40
0.352778
 41
0.352778
  0
VERTEX
  8
0
 10
252.483
 20
45.1429
 30
0.0
 40
0.352778
 41
0.352778
  0
VERTEX
  8
0
 10
252.26
 20
45.0856
 30
0.0
 40
0.352778
 41
0.352778
  0
VERTEX
  8
0
 10
252.047
 20
45.0075
 30
0.0
 40
0.352778
 41
0.352778
  0
VERTEX
  8
0
 10
251.843
 20
44.9094
 30
0.0
 40
0.352778
 41
0.352778
  0
VERTEX
  8
0
 10
251.651
 20
44.7931
 30
0.0
 40
0.352778
 41
0.352778
  0
VERTEX
  8
0
 10
251.472
 20
44.6592
 30
0.0
 40
0.352778
 41
0.352778
  0
VERTEX
  8
0
 10
251.308
 20
44.5092
 30
0.0
 40
0.352778
 41
0.352778
  0
VERTEX
  8
0
 10
251.158
 20
44.344
 30
0.0
 40
0.352778
 41
0.352778
  0
VERTEX
  8
0
 10
251.024
 20
44.165
 30
0.0
 40
0.352778
 41
0.352778
  0
VERTEX
  8
0
 10
250.907
 20
43.9733
 30
0.0
 40
0.352778
 41
0.352778
  0
VERTEX
  8
0
 10
250.81
 20
43.7701
 30
0.0
 40
0.352778
 41
0.352778
  0
VERTEX
  8
0
 10
250.732
 20
43.5565
 30
0.0
 40
0.352778
 41
0.352778
  0
VERTEX
  8
0
 10
250.674
 20
43.3336
 30
0.0
 40
0.352778
 41
0.352778
  0
VERTEX
  8
0
 10
250.639
 20
43.1028
 30
0.0
 40
0.352778
 41
0.352778
  0
VERTEX
  8
0
 10
250.626
 20
42.9246
 30
0.0
 40
0.352778
 41
0.352778
  0
VERTEX
  8
0
 10
250.626
 20
42.8651
 30
0.0
 40
0.352778
 41
0.352778
  0
VERTEX
  8
0
 10
250.626
 20
12.665
 30
0.0
 40
0.352778
 41
0.352778
  0
VERTEX
  8
0
 10
250.626
 20
12.6056
 30
0.0
 40
0.352778
 41
0.352778
  0
VERTEX
  8
0
 10
250.639
 20
12.4274
 30
0.0
 40
0.352778
 41
0.352778
  0
VERTEX
  8
0
 10
250.674
 20
12.1965
 30
0.0
 40
0.352778
 41
0.352778
  0
VERTEX
  8
0
 10
250.732
 20
11.9737
 30
0.0
 40
0.352778
 41
0.352778
  0
VERTEX
  8
0
 10
250.81
 20
11.7601
 30
0.0
 40
0.352778
 41
0.352778
  0
VERTEX
  8
0
 10
250.907
 20
11.5569
 30
0.0
 40
0.352778
 41
0.352778
  0
VERTEX
  8
0
 10
251.024
 20
11.3651
 30
0.0
 40
0.352778
 41
0.352778
  0
VERTEX
  8
0
 10
251.158
 20
11.1861
 30
0.0
 40
0.352778
 41
0.352778
  0
VERTEX
  8
0
 10
251.308
 20
11.0211
 30
0.0
 40
0.352778
 41
0.352778
  0
VERTEX
  8
0
 10
251.472
 20
10.871
 30
0.0
 40
0.352778
 41
0.352778
  0
VERTEX
  8
0
 10
251.651
 20
10.7371
 30
0.0
 40
0.352778
 41
0.352778
  0
VERTEX
  8
0
 10
251.843
 20
10.6207
 30
0.0
 40
0.352778
 41
0.352778
  0
VERTEX
  8
0
 10
252.047
 20
10.5228
 30
0.0
 40
0.352778
 41
0.352778
  0
VERTEX
  8
0
 10
252.26
 20
10.4446
 30
0.0
 40
0.352778
 41
0.352778
  0
VERTEX
  8
0
 10
252.483
 20
10.3873
 30
0.0
 40
0.352778
 41
0.352778
  0
VERTEX
  8
0
 10
252.714
 20
10.3521
 30
0.0
 40
0.352778
 41
0.352778
  0
VERTEX
  8
0
 10
252.892
 20
10.3401
 30
0.0
 40
0.352778
 41
0.352778
  0
VERTEX
  8
0
 10
252.951
 20
10.3401
 30
0.0
 40
0.352778
 41
0.352778
  0
VERTEX
  8
0
 10
253.151
 20
10.3401
 30
0.0
 40
0.352778
 41
0.352778
  0
VERTEX
  8
0
 10
253.21
 20
10.3401
 30
0.0
 40
0.352778
 41
0.352778
  0
VERTEX
  8
0
 10
253.382
 20
10.3515
 30
0.0
 40
0.352778
 41
0.352778
  0
VERTEX
  8
0
 10
253.607
 20
10.3852
 30
0.0
 40
0.352778
 41
0.352778
  0
VERTEX
  8
0
 10
253.828
 20
10.4406
 30
0.0
 40
0.352778
 41
0.352778
  0
VERTEX
  8
0
 10
254.042
 20
10.5171
 30
0.0
 40
0.352778
 41
0.352778
  0
VERTEX
  8
0
 10
254.247
 20
10.614
 30
0.0
 40
0.352778
 41
0.352778
  0
VERTEX
  8
0
 10
254.442
 20
10.7307
 30
0.0
 40
0.352778
 41
0.352778
  0
VERTEX
  8
0
 10
254.625
 20
10.8666
 30
0.0
 40
0.352778
 41
0.352778
  0
VERTEX
  8
0
 10
254.756
 20
10.9805
 30
0.0
 40
0.352778
 41
0.352778
  0
VERTEX
  8
0
 10
254.796
 20
11.0211
 30
0.0
 40
0.352778
 41
0.352778
  0
VERTEX
  8
0
 10
254.836
 20
11.0617
 30
0.0
 40
0.352778
 41
0.352778
  0
VERTEX
  8
0
 10
254.95
 20
11.1916
 30
0.0
 40
0.352778
 41
0.352778
  0
VERTEX
  8
0
 10
255.086
 20
11.3752
 30
0.0
 40
0.352778
 41
0.352778
  0
VERTEX
  8
0
 10
255.203
 20
11.5703
 30
0.0
 40
0.352778
 41
0.352778
  0
VERTEX
  8
0
 10
255.3
 20
11.7753
 30
0.0
 40
0.352778
 41
0.352778
  0
VERTEX
  8
0
 10
255.376
 20
11.9889
 30
0.0
 40
0.352778
 41
0.352778
  0
VERTEX
  8
0
 10
255.432
 20
12.2094
 30
0.0
 40
0.352778
 41
0.352778
  0
VERTEX
  8
0
 10
255.465
 20
12.4353
 30
0.0
 40
0.352778
 41
0.352778
  0
VERTEX
  8
0
 10
255.476
 20
12.6076
 30
0.0
 40
0.352778
 41
0.352778
  0
VERTEX
  8
0
 10
255.476
 20
12.665
 30
0.0
 40
0.352778
 41
0.352778
  0
VERTEX
  8
0
 10
255.476
 20
42.8651
 30
0.0
 40
0.352778
 41
0.352778
  0
SEQEND
 8
0
  0
POLYLINE
  8
0
 62
     0
 66
     1
 10
0
 20
0
 30
0.0
 70
     1
 40
25.4
 41
25.4
  0
VERTEX
  8
0
 10
242.951
 20
10.3401
 30
0.0
 40
0.352778
 41
0.352778
  0
VERTEX
  8
0
 10
242.894
 20
10.3401
 30
0.0
 40
0.352778
 41
0.352778
  0
VERTEX
  8
0
 10
242.722
 20
10.3515
 30
0.0
 40
0.352778
 41
0.352778
  0
VERTEX
  8
0
 10
242.496
 20
10.3852
 30
0.0
 40
0.352778
 41
0.352778
  0
VERTEX
  8
0
 10
242.275
 20
10.4406
 30
0.0
 40
0.352778
 41
0.352778
  0
VERTEX
  8
0
 10
242.063
 20
10.5171
 30
0.0
 40
0.352778
 41
0.352778
  0
VERTEX
  8
0
 10
241.857
 20
10.614
 30
0.0
 40
0.352778
 41
0.352778
  0
VERTEX
  8
0
 10
241.662
 20
10.7307
 30
0.0
 40
0.352778
 41
0.352778
  0
VERTEX
  8
0
 10
241.478
 20
10.8666
 30
0.0
 40
0.352778
 41
0.352778
  0
VERTEX
  8
0
 10
241.349
 20
10.9805
 30
0.0
 40
0.352778
 41
0.352778
  0
VERTEX
  8
0
 10
241.308
 20
11.0211
 30
0.0
 40
0.352778
 41
0.352778
  0
VERTEX
  8
0
 10
241.267
 20
11.0617
 30
0.0
 40
0.352778
 41
0.352778
  0
VERTEX
  8
0
 10
241.153
 20
11.1916
 30
0.0
 40
0.352778
 41
0.352778
  0
VERTEX
  8
0
 10
241.018
 20
11.3752
 30
0.0
 40
0.352778
 41
0.352778
  0
VERTEX
  8
0
 10
240.9
 20
11.5703
 30
0.0
 40
0.352778
 41
0.352778
  0
VERTEX
  8
0
 10
240.804
 20
11.7753
 30
0.0
 40
0.352778
 41
0.352778
  0
VERTEX
  8
0
 10
240.728
 20
11.9889
 30
0.0
 40
0.352778
 41
0.352778
  0
VERTEX
  8
0
 10
240.672
 20
12.2094
 30
0.0
 40
0.352778
 41
0.352778
  0
VERTEX
  8
0
 10
240.638
 20
12.4353
 30
0.0
 40
0.352778
 41
0.352778
  0
VERTEX
  8
0
 10
240.626
 20
12.6076
 30
0.0
 40
0.352778
 41
0.352778
  0
VERTEX
  8
0
 10
240.626
 20
12.665
 30
0.0
 40
0.352778
 41
0.352778
  0
VERTEX
  8
0
 10
240.626
 20
42.8651
 30
0.0
 40
0.352778
 41
0.352778
  0
VERTEX
  8
0
 10
240.626
 20
42.9225
 30
0.0
 40
0.352778
 41
0.352778
  0
VERTEX
  8
0
 10
240.638
 20
43.0949
 30
0.0
 40
0.352778
 41
0.352778
  0
VERTEX
  8
0
 10
240.672
 20
43.3208
 30
0.0
 40
0.352778
 41
0.352778
  0
VERTEX
  8
0
 10
240.728
 20
43.5412
 30
0.0
 40
0.352778
 41
0.352778
  0
VERTEX
  8
0
 10
240.804
 20
43.7549
 30
0.0
 40
0.352778
 41
0.352778
  0
VERTEX
  8
0
 10
240.9
 20
43.9599
 30
0.0
 40
0.352778
 41
0.352778
  0
VERTEX
  8
0
 10
241.018
 20
44.155
 30
0.0
 40
0.352778
 41
0.352778
  0
VERTEX
  8
0
 10
241.153
 20
44.3386
 30
0.0
 40
0.352778
 41
0.352778
  0
VERTEX
  8
0
 10
241.267
 20
44.4685
 30
0.0
 40
0.352778
 41
0.352778
  0
VERTEX
  8
0
 10
241.308
 20
44.5092
 30
0.0
 40
0.352778
 41
0.352778
  0
VERTEX
  8
0
 10
241.349
 20
44.5497
 30
0.0
 40
0.352778
 41
0.352778
  0
VERTEX
  8
0
 10
241.478
 20
44.6636
 30
0.0
 40
0.352778
 41
0.352778
  0
VERTEX
  8
0
 10
241.662
 20
44.7994
 30
0.0
 40
0.352778
 41
0.352778
  0
VERTEX
  8
0
 10
241.857
 20
44.9162
 30
0.0
 40
0.352778
 41
0.352778
  0
VERTEX
  8
0
 10
242.063
 20
45.0132
 30
0.0
 40
0.352778
 41
0.352778
  0
VERTEX
  8
0
 10
242.275
 20
45.0896
 30
0.0
 40
0.352778
 41
0.352778
  0
VERTEX
  8
0
 10
242.496
 20
45.145
 30
0.0
 40
0.352778
 41
0.352778
  0
VERTEX
  8
0
 10
242.722
 20
45.1788
 30
0.0
 40
0.352778
 41
0.352778
  0
VERTEX
  8
0
 10
242.894
 20
45.1901
 30
0.0
 40
0.352778
 41
0.352778
  0
VERTEX
  8
0
 10
242.951
 20
45.1901
 30
0.0
 40
0.352778
 41
0.352778
  0
VERTEX
  8
0
 10
243.151
 20
45.1901
 30
0.0
 40
0.352778
 41
0.352778
  0
VERTEX
  8
0
 10
243.211
 20
45.1901
 30
0.0
 40
0.352778
 41
0.352778
  0
VERTEX
  8
0
 10
243.389
 20
45.1781
 30
0.0
 40
0.352778
 41
0.352778
  0
VERTEX
  8
0
 10
243.621
 20
45.1429
 30
0.0
 40
0.352778
 41
0.352778
  0
VERTEX
  8
0
 10
243.843
 20
45.0856
 30
0.0
 40
0.352778
 41
0.352778
  0
VERTEX
  8
0
 10
244.057
 20
45.0075
 30
0.0
 40
0.352778
 41
0.352778
  0
VERTEX
  8
0
 10
244.26
 20
44.9094
 30
0.0
 40
0.352778
 41
0.352778
  0
VERTEX
  8
0
 10
244.451
 20
44.7931
 30
0.0
 40
0.352778
 41
0.352778
  0
VERTEX
  8
0
 10
244.631
 20
44.6592
 30
0.0
 40
0.352778
 41
0.352778
  0
VERTEX
  8
0
 10
244.796
 20
44.5092
 30
0.0
 40
0.352778
 41
0.352778
  0
VERTEX
  8
0
 10
244.946
 20
44.344
 30
0.0
 40
0.352778
 41
0.352778
  0
VERTEX
  8
0
 10
245.079
 20
44.165
 30
0.0
 40
0.352778
 41
0.352778
  0
VERTEX
  8
0
 10
245.196
 20
43.9733
 30
0.0
 40
0.352778
 41
0.352778
  0
VERTEX
  8
0
 10
245.294
 20
43.7701
 30
0.0
 40
0.352778
 41
0.352778
  0
VERTEX
  8
0
 10
245.372
 20
43.5565
 30
0.0
 40
0.352778
 41
0.352778
  0
VERTEX
  8
0
 10
245.429
 20
43.3336
 30
0.0
 40
0.352778
 41
0.352778
  0
VERTEX
  8
0
 10
245.465
 20
43.1028
 30
0.0
 40
0.352778
 41
0.352778
  0
VERTEX
  8
0
 10
245.476
 20
42.9246
 30
0.0
 40
0.352778
 41
0.352778
  0
VERTEX
  8
0
 10
245.476
 20
42.8651
 30
0.0
 40
0.352778
 41
0.352778
  0
VERTEX
  8
0
 10
245.476
 20
12.665
 30
0.0
 40
0.352778
 41
0.352778
  0
VERTEX
  8
0
 10
245.476
 20
12.6076
 30
0.0
 40
0.352778
 41
0.352778
  0
VERTEX
  8
0
 10
245.465
 20
12.4353
 30
0.0
 40
0.352778
 41
0.352778
  0
VERTEX
  8
0
 10
245.432
 20
12.2094
 30
0.0
 40
0.352778
 41
0.352778
  0
VERTEX
  8
0
 10
245.376
 20
11.9889
 30
0.0
 40
0.352778
 41
0.352778
  0
VERTEX
  8
0
 10
245.3
 20
11.7753
 30
0.0
 40
0.352778
 41
0.352778
  0
VERTEX
  8
0
 10
245.203
 20
11.5703
 30
0.0
 40
0.352778
 41
0.352778
  0
VERTEX
  8
0
 10
245.086
 20
11.3752
 30
0.0
 40
0.352778
 41
0.352778
  0
VERTEX
  8
0
 10
244.95
 20
11.1916
 30
0.0
 40
0.352778
 41
0.352778
  0
VERTEX
  8
0
 10
244.836
 20
11.0617
 30
0.0
 40
0.352778
 41
0.352778
  0
VERTEX
  8
0
 10
244.796
 20
11.0211
 30
0.0
 40
0.352778
 41
0.352778
  0
VERTEX
  8
0
 10
244.756
 20
10.9805
 30
0.0
 40
0.352778
 41
0.352778
  0
VERTEX
  8
0
 10
244.625
 20
10.8666
 30
0.0
 40
0.352778
 41
0.352778
  0
VERTEX
  8
0
 10
244.442
 20
10.7307
 30
0.0
 40
0.352778
 41
0.352778
  0
VERTEX
  8
0
 10
244.247
 20
10.614
 30
0.0
 40
0.352778
 41
0.352778
  0
VERTEX
  8
0
 10
244.042
 20
10.5171
 30
0.0
 40
0.352778
 41
0.352778
  0
VERTEX
  8
0
 10
243.828
 20
10.4406
 30
0.0
 40
0.352778
 41
0.352778
  0
VERTEX
  8
0
 10
243.607
 20
10.3852
 30
0.0
 40
0.352778
 41
0.352778
  0
VERTEX
  8
0
 10
243.382
 20
10.3515
 30
0.0
 40
0.352778
 41
0.352778
  0
VERTEX
  8
0
 10
243.21
 20
10.3401
 30
0.0
 40
0.352778
 41
0.352778
  0
VERTEX
  8
0
 10
243.151
 20
10.3401
 30
0.0
 40
0.352778
 41
0.352778
  0
VERTEX
  8
0
 10
242.951
 20
10.3401
 30
0.0
 40
0.352778
 41
0.352778
  0
SEQEND
 8
0
  0
POLYLINE
  8
0
 62
     0
 66
     1
 10
0
 20
0
 30
0.0
 70
     1
 40
25.4
 41
25.4
  0
VERTEX
  8
0
 10
230.626
 20
42.8651
 30
0.0
 40
0.352778
 41
0.352778
  0
VERTEX
  8
0
 10
230.626
 20
42.9225
 30
0.0
 40
0.352778
 41
0.352778
  0
VERTEX
  8
0
 10
230.638
 20
43.0949
 30
0.0
 40
0.352778
 41
0.352778
  0
VERTEX
  8
0
 10
230.672
 20
43.3208
 30
0.0
 40
0.352778
 41
0.352778
  0
VERTEX
  8
0
 10
230.728
 20
43.5412
 30
0.0
 40
0.352778
 41
0.352778
  0
VERTEX
  8
0
 10
230.804
 20
43.7549
 30
0.0
 40
0.352778
 41
0.352778
  0
VERTEX
  8
0
 10
230.9
 20
43.9599
 30
0.0
 40
0.352778
 41
0.352778
  0
VERTEX
  8
0
 10
231.018
 20
44.155
 30
0.0
 40
0.352778
 41
0.352778
  0
VERTEX
  8
0
 10
231.153
 20
44.3386
 30
0.0
 40
0.352778
 41
0.352778
  0
VERTEX
  8
0
 10
231.267
 20
44.4685
 30
0.0
 40
0.352778
 41
0.352778
  0
VERTEX
  8
0
 10
231.308
 20
44.5092
 30
0.0
 40
0.352778
 41
0.352778
  0
VERTEX
  8
0
 10
231.349
 20
44.5497
 30
0.0
 40
0.352778
 41
0.352778
  0
VERTEX
  8
0
 10
231.478
 20
44.6636
 30
0.0
 40
0.352778
 41
0.352778
  0
VERTEX
  8
0
 10
231.662
 20
44.7994
 30
0.0
 40
0.352778
 41
0.352778
  0
VERTEX
  8
0
 10
231.857
 20
44.9162
 30
0.0
 40
0.352778
 41
0.352778
  0
VERTEX
  8
0
 10
232.063
 20
45.0132
 30
0.0
 40
0.352778
 41
0.352778
  0
VERTEX
  8
0
 10
232.275
 20
45.0896
 30
0.0
 40
0.352778
 41
0.352778
  0
VERTEX
  8
0
 10
232.496
 20
45.145
 30
0.0
 40
0.352778
 41
0.352778
  0
VERTEX
  8
0
 10
232.722
 20
45.1788
 30
0.0
 40
0.352778
 41
0.352778
  0
VERTEX
  8
0
 10
232.894
 20
45.1901
 30
0.0
 40
0.352778
 41
0.352778
  0
VERTEX
  8
0
 10
232.951
 20
45.1901
 30
0.0
 40
0.352778
 41
0.352778
  0
VERTEX
  8
0
 10
233.151
 20
45.1901
 30
0.0
 40
0.352778
 41
0.352778
  0
VERTEX
  8
0
 10
233.211
 20
45.1901
 30
0.0
 40
0.352778
 41
0.352778
  0
VERTEX
  8
0
 10
233.389
 20
45.1781
 30
0.0
 40
0.352778
 41
0.352778
  0
VERTEX
  8
0
 10
233.621
 20
45.1429
 30
0.0
 40
0.352778
 41
0.352778
  0
VERTEX
  8
0
 10
233.843
 20
45.0856
 30
0.0
 40
0.352778
 41
0.352778
  0
VERTEX
  8
0
 10
234.057
 20
45.0075
 30
0.0
 40
0.352778
 41
0.352778
  0
VERTEX
  8
0
 10
234.26
 20
44.9094
 30
0.0
 40
0.352778
 41
0.352778
  0
VERTEX
  8
0
 10
234.451
 20
44.7931
 30
0.0
 40
0.352778
 41
0.352778
  0
VERTEX
  8
0
 10
234.631
 20
44.6592
 30
0.0
 40
0.352778
 41
0.352778
  0
VERTEX
  8
0
 10
234.796
 20
44.5092
 30
0.0
 40
0.352778
 41
0.352778
  0
VERTEX
  8
0
 10
234.946
 20
44.344
 30
0.0
 40
0.352778
 41
0.352778
  0
VERTEX
  8
0
 10
235.079
 20
44.165
 30
0.0
 40
0.352778
 41
0.352778
  0
VERTEX
  8
0
 10
235.196
 20
43.9733
 30
0.0
 40
0.352778
 41
0.352778
  0
VERTEX
  8
0
 10
235.294
 20
43.7701
 30
0.0
 40
0.352778
 41
0.352778
  0
VERTEX
  8
0
 10
235.372
 20
43.5565
 30
0.0
 40
0.352778
 41
0.352778
  0
VERTEX
  8
0
 10
235.429
 20
43.3336
 30
0.0
 40
0.352778
 41
0.352778
  0
VERTEX
  8
0
 10
235.465
 20
43.1028
 30
0.0
 40
0.352778
 41
0.352778
  0
VERTEX
  8
0
 10
235.476
 20
42.9246
 30
0.0
 40
0.352778
 41
0.352778
  0
VERTEX
  8
0
 10
235.476
 20
42.8651
 30
0.0
 40
0.352778
 41
0.352778
  0
VERTEX
  8
0
 10
235.476
 20
12.665
 30
0.0
 40
0.352778
 41
0.352778
  0
VERTEX
  8
0
 10
235.476
 20
12.6076
 30
0.0
 40
0.352778
 41
0.352778
  0
VERTEX
  8
0
 10
235.465
 20
12.4353
 30
0.0
 40
0.352778
 41
0.352778
  0
VERTEX
  8
0
 10
235.432
 20
12.2094
 30
0.0
 40
0.352778
 41
0.352778
  0
VERTEX
  8
0
 10
235.376
 20
11.9889
 30
0.0
 40
0.352778
 41
0.352778
  0
VERTEX
  8
0
 10
235.3
 20
11.7753
 30
0.0
 40
0.352778
 41
0.352778
  0
VERTEX
  8
0
 10
235.203
 20
11.5703
 30
0.0
 40
0.352778
 41
0.352778
  0
VERTEX
  8
0
 10
235.086
 20
11.3752
 30
0.0
 40
0.352778
 41
0.352778
  0
VERTEX
  8
0
 10
234.95
 20
11.1916
 30
0.0
 40
0.352778
 41
0.352778
  0
VERTEX
  8
0
 10
234.836
 20
11.0617
 30
0.0
 40
0.352778
 41
0.352778
  0
VERTEX
  8
0
 10
234.796
 20
11.0211
 30
0.0
 40
0.352778
 41
0.352778
  0
VERTEX
  8
0
 10
234.756
 20
10.9805
 30
0.0
 40
0.352778
 41
0.352778
  0
VERTEX
  8
0
 10
234.625
 20
10.8666
 30
0.0
 40
0.352778
 41
0.352778
  0
VERTEX
  8
0
 10
234.442
 20
10.7307
 30
0.0
 40
0.352778
 41
0.352778
  0
VERTEX
  8
0
 10
234.247
 20
10.614
 30
0.0
 40
0.352778
 41
0.352778
  0
VERTEX
  8
0
 10
234.042
 20
10.5171
 30
0.0
 40
0.352778
 41
0.352778
  0
VERTEX
  8
0
 10
233.828
 20
10.4406
 30
0.0
 40
0.352778
 41
0.352778
  0
VERTEX
  8
0
 10
233.607
 20
10.3852
 30
0.0
 40
0.352778
 41
0.352778
  0
VERTEX
  8
0
 10
233.382
 20
10.3515
 30
0.0
 40
0.352778
 41
0.352778
  0
VERTEX
  8
0
 10
233.21
 20
10.3401
 30
0.0
 40
0.352778
 41
0.352778
  0
VERTEX
  8
0
 10
233.151
 20
10.3401
 30
0.0
 40
0.352778
 41
0.352778
  0
VERTEX
  8
0
 10
232.951
 20
10.3401
 30
0.0
 40
0.352778
 41
0.352778
  0
VERTEX
  8
0
 10
232.894
 20
10.3401
 30
0.0
 40
0.352778
 41
0.352778
  0
VERTEX
  8
0
 10
232.722
 20
10.3515
 30
0.0
 40
0.352778
 41
0.352778
  0
VERTEX
  8
0
 10
232.496
 20
10.3852
 30
0.0
 40
0.352778
 41
0.352778
  0
VERTEX
  8
0
 10
232.275
 20
10.4406
 30
0.0
 40
0.352778
 41
0.352778
  0
VERTEX
  8
0
 10
232.063
 20
10.5171
 30
0.0
 40
0.352778
 41
0.352778
  0
VERTEX
  8
0
 10
231.857
 20
10.614
 30
0.0
 40
0.352778
 41
0.352778
  0
VERTEX
  8
0
 10
231.662
 20
10.7307
 30
0.0
 40
0.352778
 41
0.352778
  0
VERTEX
  8
0
 10
231.478
 20
10.8666
 30
0.0
 40
0.352778
 41
0.352778
  0
VERTEX
  8
0
 10
231.349
 20
10.9805
 30
0.0
 40
0.352778
 41
0.352778
  0
VERTEX
  8
0
 10
231.308
 20
11.0211
 30
0.0
 40
0.352778
 41
0.352778
  0
VERTEX
  8
0
 10
231.267
 20
11.0617
 30
0.0
 40
0.352778
 41
0.352778
  0
VERTEX
  8
0
 10
231.153
 20
11.1916
 30
0.0
 40
0.352778
 41
0.352778
  0
VERTEX
  8
0
 10
231.018
 20
11.3752
 30
0.0
 40
0.352778
 41
0.352778
  0
VERTEX
  8
0
 10
230.9
 20
11.5703
 30
0.0
 40
0.352778
 41
0.352778
  0
VERTEX
  8
0
 10
230.804
 20
11.7753
 30
0.0
 40
0.352778
 41
0.352778
  0
VERTEX
  8
0
 10
230.728
 20
11.9889
 30
0.0
 40
0.352778
 41
0.352778
  0
VERTEX
  8
0
 10
230.672
 20
12.2094
 30
0.0
 40
0.352778
 41
0.352778
  0
VERTEX
  8
0
 10
230.638
 20
12.4353
 30
0.0
 40
0.352778
 41
0.352778
  0
VERTEX
  8
0
 10
230.626
 20
12.6076
 30
0.0
 40
0.352778
 41
0.352778
  0
VERTEX
  8
0
 10
230.626
 20
12.665
 30
0.0
 40
0.352778
 41
0.352778
  0
VERTEX
  8
0
 10
230.626
 20
42.8651
 30
0.0
 40
0.352778
 41
0.352778
  0
SEQEND
 8
0
  0
POLYLINE
  8
0
 62
     0
 66
     1
 10
0
 20
0
 30
0.0
 70
     1
 40
25.4
 41
25.4
  0
VERTEX
  8
0
 10
0.176378
 20
160.49
 30
0.0
 40
0.352778
 41
0.352778
  0
VERTEX
  8
0
 10
55.3265
 20
160.49
 30
0.0
 40
0.352778
 41
0.352778
  0
VERTEX
  8
0
 10
55.3265
 20
55.3401
 30
0.0
 40
0.352778
 41
0.352778
  0
VERTEX
  8
0
 10
0.176378
 20
55.3401
 30
0.0
 40
0.352778
 41
0.352778
  0
VERTEX
  8
0
 10
0.176378
 20
160.49
 30
0.0
 40
0.352778
 41
0.352778
  0
SEQEND
 8
0
  0
POLYLINE
  8
0
 62
     0
 66
     1
 10
0
 20
0
 30
0.0
 40
25.4
 41
25.4
  0
VERTEX
  8
0
 10
118.327
 20
55.3401
 30
0.0
 40
0.352778
 41
0.352778
  0
VERTEX
  8
0
 10
118.327
 20
60.3401
 30
0.0
 40
0.352778
 41
0.352778
  0
VERTEX
  8
0
 10
97.4765
 20
60.3401
 30
0.0
 40
0.352778
 41
0.352778
  0
VERTEX
  8
0
 10
97.4765
 20
55.3401
 30
0.0
 40
0.352778
 41
0.352778
  0
VERTEX
  8
0
 10
76.3265
 20
55.3401
 30
0.0
 40
0.352778
 41
0.352778
  0
VERTEX
  8
0
 10
76.3265
 20
60.3401
 30
0.0
 40
0.352778
 41
0.352778
  0
VERTEX
  8
0
 10
55.3265
 20
60.3401
 30
0.0
 40
0.352778
 41
0.352778
  0
VERTEX
  8
0
 10
55.3265
 20
160.49
 30
0.0
 40
0.352778
 41
0.352778
  0
VERTEX
  8
0
 10
76.4765
 20
160.49
 30
0.0
 40
0.352778
 41
0.352778
  0
VERTEX
  8
0
 10
76.4765
 20
155.49
 30
0.0
 40
0.352778
 41
0.352778
  0
VERTEX
  8
0
 10
97.3265
 20
155.49
 30
0.0
 40
0.352778
 41
0.352778
  0
VERTEX
  8
0
 10
97.3265
 20
160.49
 30
0.0
 40
0.352778
 41
0.352778
  0
VERTEX
  8
0
 10
118.477
 20
160.49
 30
0.0
 40
0.352778
 41
0.352778
  0
VERTEX
  8
0
 10
118.477
 20
155.49
 30
0.0
 40
0.352778
 41
0.352778
  0
VERTEX
  8
0
 10
139.326
 20
155.49
 30
0.0
 40
0.352778
 41
0.352778
  0
VERTEX
  8
0
 10
139.326
 20
160.49
 30
0.0
 40
0.352778
 41
0.352778
  0
VERTEX
  8
0
 10
155.476
 20
160.49
 30
0.0
 40
0.352778
 41
0.352778
  0
VERTEX
  8
0
 10
155.476
 20
140.49
 30
0.0
 40
0.352778
 41
0.352778
  0
VERTEX
  8
0
 10
160.476
 20
140.49
 30
0.0
 40
0.352778
 41
0.352778
  0
VERTEX
  8
0
 10
160.476
 20
120.34
 30
0.0
 40
0.352778
 41
0.352778
  0
VERTEX
  8
0
 10
155.476
 20
120.34
 30
0.0
 40
0.352778
 41
0.352778
  0
VERTEX
  8
0
 10
155.476
 20
100.49
 30
0.0
 40
0.352778
 41
0.352778
  0
VERTEX
  8
0
 10
160.476
 20
100.49
 30
0.0
 40
0.352778
 41
0.352778
  0
VERTEX
  8
0
 10
160.476
 20
80.3401
 30
0.0
 40
0.352778
 41
0.352778
  0
VERTEX
  8
0
 10
155.476
 20
80.3401
 30
0.0
 40
0.352778
 41
0.352778
  0
VERTEX
  8
0
 10
155.476
 20
60.3401
 30
0.0
 40
0.352778
 41
0.352778
  0
VERTEX
  8
0
 10
139.476
 20
60.3401
 30
0.0
 40
0.352778
 41
0.352778
  0
VERTEX
  8
0
 10
139.476
 20
55.3401
 30
0.0
 40
0.352778
 41
0.352778
  0
VERTEX
  8
0
 10
110.327
 20
55.3401
 30
0.0
 40
0.352778
 41
0.352778
  0
VERTEX
  8
0
 10
110.327
 20
45.3401
 30
0.0
 40
0.352778
 41
0.352778
  0
VERTEX
  8
0
 10
105.327
 20
45.3401
 30
0.0
 40
0.352778
 41
0.352778
  0
SEQEND
 8
0
  0
POLYLINE
  8
0
 62
     0
 66
     1
 10
0
 20
0
 30
0.0
 40
25.4
 41
25.4
  0
VERTEX
  8
0
 10
210.476
 20
55.3401
 30
0.0
 40
0.352778
 41
0.352778
  0
VERTEX
  8
0
 10
210.476
 20
35.1901
 30
0.0
 40
0.352778
 41
0.352778
  0
VERTEX
  8
0
 10
205.476
 20
35.1901
 30
0.0
 40
0.352778
 41
0.352778
  0
VERTEX
  8
0
 10
205.476
 20
20.34
 30
0.0
 40
0.352778
 41
0.352778
  0
VERTEX
  8
0
 10
210.476
 20
20.34
 30
0.0
 40
0.352778
 41
0.352778
  0
VERTEX
  8
0
 10
210.476
 20
5.19006
 30
0.0
 40
0.352778
 41
0.352778
  0
VERTEX
  8
0
 10
189.476
 20
5.19006
 30
0.0
 40
0.352778
 41
0.352778
  0
VERTEX
  8
0
 10
189.476
 20
0.19005
 30
0.0
 40
0.352778
 41
0.352778
  0
VERTEX
  8
0
 10
168.326
 20
0.19005
 30
0.0
 40
0.352778
 41
0.352778
  0
VERTEX
  8
0
 10
168.326
 20
5.19006
 30
0.0
 40
0.352778
 41
0.352778
  0
VERTEX
  8
0
 10
147.476
 20
5.19006
 30
0.0
 40
0.352778
 41
0.352778
  0
VERTEX
  8
0
 10
147.476
 20
0.19005
 30
0.0
 40
0.352778
 41
0.352778
  0
VERTEX
  8
0
 10
126.327
 20
0.19005
 30
0.0
 40
0.352778
 41
0.352778
  0
VERTEX
  8
0
 10
126.327
 20
5.19006
 30
0.0
 40
0.352778
 41
0.352778
  0
VERTEX
  8
0
 10
110.327
 20
5.19006
 30
0.0
 40
0.352778
 41
0.352778
  0
VERTEX
  8
0
 10
110.327
 20
15.19
 30
0.0
 40
0.352778
 41
0.352778
  0
VERTEX
  8
0
 10
105.327
 20
15.19
 30
0.0
 40
0.352778
 41
0.352778
  0
SEQEND
 8
0
  0
POLYLINE
  8
0
 62
     0
 66
     1
 10
0
 20
0
 30
0.0
 40
25.4
 41
25.4
  0
VERTEX
  8
0
 10
170.476
 20
55.3401
 30
0.0
 40
0.352778
 41
0.352778
  0
VERTEX
  8
0
 10
170.476
 20
50.3401
 30
0.0
 40
0.352778
 41
0.352778
  0
VERTEX
  8
0
 10
190.326
 20
50.3401
 30
0.0
 40
0.352778
 41
0.352778
  0
VERTEX
  8
0
 10
190.326
 20
55.3401
 30
0.0
 40
0.352778
 41
0.352778
  0
VERTEX
  8
0
 10
223.626
 20
55.3401
 30
0.0
 40
0.352778
 41
0.352778
  0
VERTEX
  8
0
 10
223.626
 20
60.3401
 30
0.0
 40
0.352778
 41
0.352778
  0
VERTEX
  8
0
 10
244.476
 20
60.3401
 30
0.0
 40
0.352778
 41
0.352778
  0
VERTEX
  8
0
 10
244.476
 20
55.3401
 30
0.0
 40
0.352778
 41
0.352778
  0
VERTEX
  8
0
 10
265.626
 20
55.3401
 30
0.0
 40
0.352778
 41
0.352778
  0
VERTEX
  8
0
 10
265.626
 20
160.49
 30
0.0
 40
0.352778
 41
0.352778
  0
VERTEX
  8
0
 10
244.476
 20
160.49
 30
0.0
 40
0.352778
 41
0.352778
  0
VERTEX
  8
0
 10
244.476
 20
155.49
 30
0.0
 40
0.352778
 41
0.352778
  0
VERTEX
  8
0
 10
223.626
 20
155.49
 30
0.0
 40
0.352778
 41
0.352778
  0
VERTEX
  8
0
 10
223.626
 20
160.49
 30
0.0
 40
0.352778
 41
0.352778
  0
VERTEX
  8
0
 10
202.476
 20
160.49
 30
0.0
 40
0.352778
 41
0.352778
  0
VERTEX
  8
0
 10
202.476
 20
155.49
 30
0.0
 40
0.352778
 41
0.352778
  0
VERTEX
  8
0
 10
181.626
 20
155.49
 30
0.0
 40
0.352778
 41
0.352778
  0
VERTEX
  8
0
 10
181.626
 20
160.49
 30
0.0
 40
0.352778
 41
0.352778
  0
VERTEX
  8
0
 10
160.476
 20
160.49
 30
0.0
 40
0.352778
 41
0.352778
  0
VERTEX
  8
0
 10
160.476
 20
139.34
 30
0.0
 40
0.352778
 41
0.352778
  0
VERTEX
  8
0
 10
165.476
 20
139.34
 30
0.0
 40
0.352778
 41
0.352778
  0
VERTEX
  8
0
 10
165.476
 20
118.49
 30
0.0
 40
0.352778
 41
0.352778
  0
VERTEX
  8
0
 10
160.476
 20
118.49
 30
0.0
 40
0.352778
 41
0.352778
  0
VERTEX
  8
0
 10
160.476
 20
97.3401
 30
0.0
 40
0.352778
 41
0.352778
  0
VERTEX
  8
0
 10
165.476
 20
97.3401
 30
0.0
 40
0.352778
 41
0.352778
  0
VERTEX
  8
0
 10
165.476
 20
76.4901
 30
0.0
 40
0.352778
 41
0.352778
  0
VERTEX
  8
0
 10
160.476
 20
76.4901
 30
0.0
 40
0.352778
 41
0.352778
  0
VERTEX
  8
0
 10
160.476
 20
55.3401
 30
0.0
 40
0.352778
 41
0.352778
  0
SEQEND
 8
0
  0
POLYLINE
  8
0
 62
     0
 66
     1
 10
0
 20
0
 30
0.0
 40
25.4
 41
25.4
  0
VERTEX
  8
0
 10
130.477
 20
55.3401
 30
0.0
 40
0.352778
 41
0.352778
  0
VERTEX
  8
0
 10
130.477
 20
50.3401
 30
0.0
 40
0.352778
 41
0.352778
  0
VERTEX
  8
0
 10
150.326
 20
50.3401
 30
0.0
 40
0.352778
 41
0.352778
  0
VERTEX
  8
0
 10
150.326
 20
55.3401
 30
0.0
 40
0.352778
 41
0.352778
  0
VERTEX
  8
0
 10
181.626
 20
55.3401
 30
0.0
 40
0.352778
 41
0.352778
  0
VERTEX
  8
0
 10
181.626
 20
60.3401
 30
0.0
 40
0.352778
 41
0.352778
  0
VERTEX
  8
0
 10
202.476
 20
60.3401
 30
0.0
 40
0.352778
 41
0.352778
  0
VERTEX
  8
0
 10
202.476
 20
55.3401
 30
0.0
 40
0.352778
 41
0.352778
  0
SEQEND
 8
0
  0
POLYLINE
  8
0
 62
     0
 66
     1
 10
0
 20
0
 30
0.0
 40
25.4
 41
25.4
  0
VERTEX
  8
0
 10
105.327
 20
35.1901
 30
0.0
 40
0.352778
 41
0.352778
  0
VERTEX
  8
0
 10
110.327
 20
35.1901
 30
0.0
 40
0.352778
 41
0.352778
  0
VERTEX
  8
0
 10
110.327
 20
25.34
 30
0.0
 40
0.352778
 41
0.352778
  0
VERTEX
  8
0
 10
105.327
 20
25.34
 30
0.0
 40
0.352778
 41
0.352778
  0
SEQEND
 8
0
  0
POLYLINE
  8
0
 62
     0
 66
     1
 10
0
 20
0
 30
0.0
 70
     1
 40
25.4
 41
25.4
  0
VERTEX
  8
0
 10
194.043
 20
121.59
 30
0.0
 40
0.352778
 41
0.352778
  0
VERTEX
  8
0
 10
200.393
 20
121.59
 30
0.0
 40
0.352778
 41
0.352778
  0
VERTEX
  8
0
 10
200.393
 20
115.24
 30
0.0
 40
0.352778
 41
0.352778
  0
VERTEX
  8
0
 10
194.043
 20
115.24
 30
0.0
 40
0.352778
 41
0.352778
  0
VERTEX
  8
0
 10
194.043
 20
121.59
 30
0.0
 40
0.352778
 41
0.352778
  0
SEQEND
 8
0
  0
POLYLINE
  8
0
 62
     0
 66
     1
 10
0
 20
0
 30
0.0
 70
     1
 40
25.4
 41
25.4
  0
VERTEX
  8
0
 10
191.293
 20
141.69
 30
0.0
 40
0.352778
 41
0.352778
  0
VERTEX
  8
0
 10
203.143
 20
141.69
 30
0.0
 40
0.352778
 41
0.352778
  0
VERTEX
  8
0
 10
203.143
 20
137.14
 30
0.0
 40
0.352778
 41
0.352778
  0
VERTEX
  8
0
 10
191.293
 20
137.14
 30
0.0
 40
0.352778
 41
0.352778
  0
VERTEX
  8
0
 10
191.293
 20
141.69
 30
0.0
 40
0.352778
 41
0.352778
  0
SEQEND
 8
0
  0
POLYLINE
  8
0
 62
     0
 66
     1
 10
0
 20
0
 30
0.0
 70
     1
 40
25.4
 41
25.4
  0
VERTEX
  8
0
 10
194.043
 20
100.59
 30
0.0
 40
0.352778
 41
0.352778
  0
VERTEX
  8
0
 10
200.393
 20
100.59
 30
0.0
 40
0.352778
 41
0.352778
  0
VERTEX
  8
0
 10
200.393
 20
94.2401
 30
0.0
 40
0.352778
 41
0.352778
  0
VERTEX
  8
0
 10
194.043
 20
94.2401
 30
0.0
 40
0.352778
 41
0.352778
  0
VERTEX
  8
0
 10
194.043
 20
100.59
 30
0.0
 40
0.352778
 41
0.352778
  0
SEQEND
 8
0
  0
POLYLINE
  8
0
 62
     0
 66
     1
 10
0
 20
0
 30
0.0
 70
     1
 40
25.4
 41
25.4
  0
VERTEX
  8
0
 10
227.86
 20
122.84
 30
0.0
 40
0.352778
 41
0.352778
  0
VERTEX
  8
0
 10
239.91
 20
122.84
 30
0.0
 40
0.352778
 41
0.352778
  0
VERTEX
  8
0
 10
239.91
 20
92.9901
 30
0.0
 40
0.352778
 41
0.352778
  0
VERTEX
  8
0
 10
227.86
 20
92.9901
 30
0.0
 40
0.352778
 41
0.352778
  0
VERTEX
  8
0
 10
227.86
 20
122.84
 30
0.0
 40
0.352778
 41
0.352778
  0
SEQEND
 8
0
  0
POLYLINE
  8
0
 62
     0
 66
     1
 10
0
 20
0
 30
0.0
 70
     1
 40
25.4
 41
25.4
  0
VERTEX
  8
0
 10
189.793
 20
81.0901
 30
0.0
 40
0.352778
 41
0.352778
  0
VERTEX
  8
0
 10
204.643
 20
81.0901
 30
0.0
 40
0.352778
 41
0.352778
  0
VERTEX
  8
0
 10
204.643
 20
71.7401
 30
0.0
 40
0.352778
 41
0.352778
  0
VERTEX
  8
0
 10
189.793
 20
71.7401
 30
0.0
 40
0.352778
 41
0.352778
  0
VERTEX
  8
0
 10
189.793
 20
81.0901
 30
0.0
 40
0.352778
 41
0.352778
  0
SEQEND
 8
0
  0
POLYLINE
  8
0
 62
     0
 66
     1
 10
0
 20
0
 30
0.0
 70
     1
 40
25.4
 41
25.4
  0
VERTEX
  8
0
 10
265.626
 20
160.49
 30
0.0
 40
0.352778
 41
0.352778
  0
VERTEX
  8
0
 10
309.776
 20
160.49
 30
0.0
 40
0.352778
 41
0.352778
  0
VERTEX
  8
0
 10
309.776
 20
66.3401
 30
0.0
 40
0.352778
 41
0.352778
  0
VERTEX
  8
0
 10
265.626
 20
66.3401
 30
0.0
 40
0.352778
 41
0.352778
  0
VERTEX
  8
0
 10
265.626
 20
160.49
 30
0.0
 40
0.352778
 41
0.352778
  0
SEQEND
 8
0
  0
ENDSEC
  0
EOF
